<?xml version="1.0" standalone="no"?>
<!DOCTYPE svg PUBLIC "-//W3C//DTD SVG 1.1//EN" "http://www.w3.org/Graphics/SVG/1.1/DTD/svg11.dtd" >
<svg xmlns="http://www.w3.org/2000/svg">
<metadata>Generated by IcoMoon</metadata>
<defs>
<font id="apl" horiz-adv-x="1024">
<font-face units-per-em="1024" ascent="960" descent="-64" />
<missing-glyph horiz-adv-x="1024" />
<glyph unicode="&#x20;" d="" horiz-adv-x="512" />
<glyph unicode="&#xe600;" d="M956.058 7.839h-888.12c-35.062 0-63.437 28.436-63.437 63.442v63.437c0 35 28.375 63.442 63.437 63.442h888.12c35.072 0 63.442-28.442 63.442-63.442v-63.437c0-35.005-28.37-63.442-63.442-63.442v0zM194.811 71.281h-63.503c-35 0-63.375 28.37-63.375 63.437v697.748c0 35.092 28.375 63.534 63.375 63.534h63.498c35.067 0 63.442-28.436 63.442-63.534v-697.754c0-35.062-28.375-63.432-63.437-63.432v0zM575.37 71.281h-63.37c-35.067 0-63.437 28.37-63.437 63.437v380.59c0 35.092 28.37 63.498 63.437 63.498h63.37c35.128 0 63.508-28.406 63.508-63.498v-380.595c0-35.062-28.38-63.432-63.508-63.432v0zM892.631 71.281h-63.442c-34.939 0-63.442 28.37-63.442 63.437v634.373c0 34.975 28.498 63.375 63.442 63.375h63.442c35.062 0 63.432-28.401 63.432-63.375v-634.378c-0.005-35.062-28.375-63.432-63.432-63.432v0z" />
<glyph unicode="&#xe601;" d="M957.701 193.229l-191.032 127.478v-127.478c0-70.328-56.96-127.288-127.288-127.288h-509.348c-70.328 0-127.473 56.96-127.473 127.288v509.537c0 70.328 57.144 127.288 127.473 127.288h509.343c70.328 0 127.288-56.96 127.288-127.288v-127.478l191.032 127.478h63.744v-509.537h-63.739zM639.38 702.766h-509.348v-509.537h509.343v509.537h0.005z" />
<glyph unicode="&#xe602;" d="M276.019-57.6h-134.758l202.24 1011.2h134.758l-202.24-1011.2zM680.499-57.6h-134.758l202.24 1011.2h134.758l-202.24-1011.2zM73.779 549.12v134.958h876.442v-134.958h-876.442zM73.779 212.122v134.758h876.442v-134.758h-876.442z" />
<glyph unicode="&#xe603;" d="M890.952-1.167h-757.949c-69.796 0-126.269 57.462-126.269 128.297v641.71c0 70.835 56.474 128.323 126.269 128.323h757.949c69.791 0 126.321-57.487 126.321-128.323v-641.71c0-70.835-56.53-128.297-126.321-128.297v0zM904.929 784.85h-786.017v-265.37c81.971-263.721 163.773-204.18 196.506-136.192 73.692 289.275 221.066 127.636 262.026 68.096 106.419-323.267 327.491-68.096 327.491-68.096v401.562h-0.005zM732.989 512.108c-52.26 0-94.689 43.121-94.689 96.276s42.429 96.276 94.689 96.276c52.362 0 94.792-43.121 94.792-96.276s-42.429-96.276-94.792-96.276v0z" />
<glyph unicode="&#xe604;" d="M980.152 541.727l-140.314-140.559c-51.748-51.753-93.189-94.182-93.686-93.686l-93.686 93.686 234.061 234.184-187.31 187.187-233.999-234.061-93.686 93.619c0.865-1.050 41.933 41.933 93.686 93.686l140.308 140.375c51.748 51.753 135.619 51.753 187.372 0l187.249-187.31c51.753-51.569 51.753-135.557 0.005-187.121v0zM231.158 260.792l468.055 468.055 93.686-93.501-468.239-468.239-93.501 93.686zM137.533 260.792l187.126-187.31 234.179 233.999 93.624-93.624c0.497-0.497-41.871-41.933-93.624-93.624l-140.559-140.436c-51.569-51.692-135.557-51.692-187.121 0l-187.31 187.31c-51.753 51.748-51.753 135.557 0 187.31l140.375 140.375c51.753 51.753 94.735 92.636 93.624 93.686l93.686-93.686-233.999-233.999z" />
<glyph unicode="&#xe605;" d="M959.488 392.090l-447.473 391.444-447.37-391.444-56.008 111.821 503.378 391.444 503.347-391.444-55.875-111.821zM852.342 0.645h-172.518v391.444h-335.529v-391.444c0 0-137.19 0-172.636 0s-51.092 47.841-51.092 47.841v287.703l391.45 335.519 391.444-335.519c0 0 0-253.517 0-287.703 0-34.135-51.118-47.841-51.118-47.841v0zM791.608 629.714v209.715h111.852v-335.519l-111.852 125.804z" />
<glyph unicode="&#xe606;" d="M515.323 447.237c82.724 68.833 86.538 177.004-62.812 125.809-17.7-74.67-306.867-245.775-62.996-377.605 64.901-53.038 106.26-88.381 566.405 440.602 15.795 60.969 13.706 74.67 0 125.809-13.706 51.195-188.805 188.8-188.805 188.8s-53.038 3.932-125.804 0c-72.76-3.937-531.067-523.141-566.405-566.41 7.864-1.905-143.693-277.181 314.609-440.417 21.632-2.028 226.227 1.905 503.414 377.605 7.926 176.942-125.809 0-125.809 0s-253.701-363.899-440.602-188.8c-119.967 116.035-210.437 135.639 0 377.6 159.304 137.672 314.793 314.609 314.793 314.609s161.147 64.901 188.8-125.809c-9.953-53.222 7.747-86.717-314.793-377.605-35.333 1.91-135.572 13.711 0.005 125.814-25.569-17.7-23.537-21.632 0 0v0z" />
<glyph unicode="&#xe607;" d="M512-53.755c-277.125 0-501.755 224.63-501.755 501.755 0 277.156 224.63 501.755 501.755 501.755s501.755-224.599 501.755-501.755c0-277.125-224.63-501.755-501.755-501.755v0zM512 824.361c-207.846 0-376.361-168.52-376.361-376.361s168.515-376.361 376.361-376.361 376.361 168.515 376.361 376.361-168.515 376.361-376.361 376.361v0zM261.028 322.606c260.71 50.97 501.939 0 501.939 0-268.611-380.283-503.834 0-501.939 0v0zM700.18 448c-34.729 0-62.787 21.043-62.787 47.043v94.090c0 26.004 28.052 47.043 62.787 47.043s62.792-21.038 62.792-47.043v-94.090c0-25.999-28.058-47.043-62.792-47.043v0zM323.82 448c-34.734 0-62.792 21.043-62.792 47.043v94.090c0 26.004 28.052 47.043 62.792 47.043 34.734 0 62.787-21.038 62.787-47.043v-94.090c0-25.999-28.052-47.043-62.787-47.043v0z" />
<glyph unicode="&#xe608;" d="M759.916 75.249c-59.899-23.296-131.543-34.842-214.733-34.842-86.502 0-163.067 13.911-230.154 41.595-67.052 27.884-119.076 72.038-156.278 132.531-37.002 60.426-55.7 127.473-55.7 201.349 0 75.843 16.66 148.767 50.028 218.737 33.167 70.2 82.632 124.426 148.403 163.067 65.608 38.676 145.684 57.902 240.026 57.902 111.242 0 197.709-28.739 259.645-86.666 62.1-57.866 93.066-129.705 93.066-215.818 0-47.795-10.988-94.182-32.963-138.86-21.816-44.744-50.586-80.435-86.144-107.075-26.542-20.076-48.189-30.377-64.855-30.377-5.473 0-10.235 2.166-14.269 6.625-4.035 4.332-6.067 10.962-6.067 19.553 0 7.148 2.396 22.569 7.347 46.188l78.961 376.003h-137.974l-13.184-58.26c-29.491 47.631-75.284 71.255-137.416 71.255-87.030 0-158.474-41.236-214.211-123.674-45.957-67.84-68.89-142.761-68.89-224.84 0-66.458 19.057-119.598 57.175-159.754 38.118-39.89 86.108-59.899 144.010-59.899 53.504 0 100.972 19.748 142.008 59.704 4.956-19.62 14.664-34.447 29.327-44.549 14.633-10.235 36.444-15.155 65.213-15.155 107.372 0 195.313 45.466 264.038 136.269 54.584 72.033 81.879 152.474 81.879 241.7 0 74.762-17.946 143.647-54.031 206.858-36.116 63.048-88.146 111.764-156.477 145.848-68.362 34.278-146.207 51.502-234.189 51.502-103.337 0-195.287-21.258-275.722-63.77-80.635-42.516-144.041-106.092-190.198-190.72-46.346-84.838-69.637-176.292-69.637-274.514 0-89.62 20.337-172.221 61.215-248.259 40.678-76.042 102.973-133.576 186.522-172.549 83.553-38.907 182.851-58.522 297.923-58.522 118.723 0 219.295 23.096 301.967 69.279 72.166 40.284 125.507 95.857 160.476 166.779h-111.37c-36.68-46.582-84.869-81.352-144.768-104.643v0zM359.214 509.64c12.826 43.1 32.051 76.073 57.344 99.328 25.457 23.291 53.14 34.836 83.19 34.836 27.853 0 50.913-10.435 69.248-31.724 18.304-21.059 27.489-51.471 27.489-90.9 0-35.297-6.789-73.416-20.173-114.289-13.548-40.868-29.491-72.033-47.795-93.297-13.020-14.956-26.045-25.979-39.235-33.132-17.388-9.708-36.081-14.694-55.864-14.694-26.568 0-48.748 10.624-66.688 31.555-17.976 20.864-26.967 53.668-26.967 98.022 0 33.198 6.431 71.255 19.451 114.294v0z" />
<glyph unicode="&#xe609;" d="M891.244-26.061h-758.492c-69.811 0-126.351 56.54-126.351 126.362v442.511h126.351v-442.511h758.492v442.511h126.356v-442.511c0-69.821-56.54-126.362-126.356-126.362v0zM575.268 289.92c0-35-28.268-63.268-63.268-63.268s-63.268 28.268-63.268 63.268v315.976h-189.624l252.892 316.16 252.897-316.16h-189.624v-315.976h-0.005z" />
<glyph unicode="&#xe60a;" d="M892.001-27.11h-760.182c-69.97 0-126.633 56.658-126.633 126.628v443.505h126.633v-443.505h760.182v443.505h126.822v-443.505c-0.005-69.97-56.852-126.628-126.822-126.628v0zM511.908 226.161l-253.271 316.861h190.044v316.682c0 34.888 28.334 63.411 63.227 63.411 35.072 0 63.411-28.518 63.411-63.411v-316.682h190.039l-253.45-316.861z" />
<glyph unicode="&#xe60b;" d="M1000.96 81.239l-122.199-122.199-193.050 192.876c-67.517-44.472-148.040-70.676-234.895-70.676-236.211 0-427.776 191.555-427.776 427.95 0 236.206 191.565 427.771 427.771 427.771 236.39 0 427.945-191.56 427.945-427.771 0-86.856-26.143-167.383-70.676-234.895l192.881-193.055zM450.811 814.761c-168.699 0-305.577-136.878-305.577-305.577 0-168.878 136.878-305.756 305.577-305.756 168.878 0 305.756 136.878 305.756 305.756 0.005 168.699-136.878 305.577-305.756 305.577v0zM512 325.806h-122.194v122.194h-122.378v122.194h122.373v122.378h122.199v-122.373h122.194v-122.199h-122.194v-122.194z" />
<glyph unicode="&#xe60c;" d="M1000.96 81.239l-122.199-122.199-193.050 192.876c-67.517-44.472-148.040-70.676-234.895-70.676-236.211 0-427.776 191.555-427.776 427.95 0 236.206 191.565 427.771 427.771 427.771 236.39 0 427.945-191.56 427.945-427.771 0-86.856-26.143-167.383-70.676-234.895l192.881-193.055zM450.811 814.761c-168.699 0-305.577-136.878-305.577-305.577 0-168.878 136.878-305.756 305.577-305.756 168.878 0 305.756 136.878 305.756 305.756 0.005 168.699-136.878 305.577-305.756 305.577v0zM267.428 448v122.194h366.766v-122.194h-366.766z" />
<glyph unicode="&#xe60d;" d="M1006.93 267.94v-85.381l-83.021-16.681c-19.092-48.276-58.368-85.919-107.315-103.142l-15.708-78.797h-84.229l-15.652 78.612c-14.684 5.074-28.339 12.324-41.027 20.787l18.729-18.734-71.363-47.611-59.581 59.453 47.616 71.542 14.618-14.74c-8.699 13.348-15.652 28.037-20.905 43.387l-76.918 15.345v84.050l78.612 15.708c6.287 17.039 15.529 32.205 26.348 46.587l-24.289-24.289-47.58 71.363 59.423 59.52 71.48-47.555-24.412-24.468c14.618 11.116 30.515 20.905 48.399 27.192l15.652 78.792h84.956l15.468-78.792c14.198-4.895 27.556-11.965 39.88-20.060l-17.034 17.039 72.023 48.215 59.94-60.18-47.98-72.448-15.708 15.708c8.945-13.655 16.077-28.82 20.972-44.708l78.607-15.713zM758.226 325.34c-51.482 0-93.297-42.056-93.297-94.019 0-51.779 41.815-93.834 93.297-93.834 51.604 0 93.297 42.056 93.297 93.834-0.005 51.963-41.692 94.019-93.297 94.019v0zM756.168 540.508c-17.162 139.213-146.77 247.675-305.92 247.675-170.941 0-309.489-124.534-309.489-278.431 0-99.4 58.732-186.163 145.802-235.412 25.318-23.987 60.908-66.765 39.818-104.771 0 1.51 51.814 36.434 124.713 52.808 1.178-39.818 9.277-77.763 23.956-112.389-8.428-0.486-16.195-2.355-24.801-2.355-6.769 0-12.995 1.51-19.579 1.869-109.85-67.005-262.907-124.047-289.915-125.558 55.864 67.497 86.738 129.065 103.777 173.962-134.835 68.157-227.466 199.281-227.466 351.846 0 222.239 193.9 402.304 433.178 402.304 237.041 0 429.435-177.224 432.451-396.923-37.586 16.374-79.273 25.682-123.146 25.682-1.203-0.005-2.166-0.307-3.379-0.307v0zM973.696 71.68l-60.058-60.242-72.023 48.282 83.988 84.352 48.092-72.392z" />
<glyph unicode="&#xe60e;" d="M1006.121 268.273v-85.033l-82.867-16.712c-18.883-48.486-58.26-86.001-107.11-103.004l-15.683-78.705h-84.070l-15.621 78.459c-14.653 5.069-28.283 12.303-40.95 20.751l18.693-18.698-71.224-47.519-59.464 59.464 47.468 71.286 14.653-14.653c-8.745 13.271-15.626 27.924-20.869 43.244l-76.774 15.314v84.076l78.464 15.677c6.211 17.004 15.498 32.143 26.296 46.438l-24.243-24.243-47.493 71.286 59.254 59.464 71.404-47.524-24.428-24.428c14.653 11.162 30.52 20.931 48.369 27.141l15.621 78.643h84.736l15.498-78.643c14.177-4.884 27.32-12.001 39.567-20.086l-16.824 17.009 71.951 48.189 59.827-60.247-47.887-72.253-15.319 15.442c8.745-13.629 15.8-28.467 20.69-44.268l78.336-15.867zM757.827 325.571c-51.323 0-93.123-41.917-93.123-93.66 0-51.686 41.795-93.66 93.123-93.66 51.564 0 93.174 41.974 93.174 93.66 0 51.743-41.61 93.66-93.174 93.66v0zM450.483 231.91c0-69.898 24.095-133.53 63.145-185.277h-475.305c0 0-45.983 85.581 0 132.081 41.103 43.904 112.358 141.123 381.491 226.043-61.819 49.331-104.064 145.833-104.064 258.371 0 200.714 69.868 248.059 196.372 248.059 126.469 0 196.372-46.5 196.372-248.059 0-48.005-8.924-92.155-22.554-132.076-135.071-33.055-235.459-154.158-235.459-299.141v0zM972.948 72.571l-59.95-60.308-71.951 48.184 83.891 84.372 48.010-72.248z" />
<glyph unicode="&#xe60f;" d="M925.066 164.905c-19.154-48.374-58.563-86.139-107.479-103.414l-15.944-79.048h-84.439l-15.764 78.684c-14.546 4.972-27.945 12.058-40.428 20.367l18.063-18.125-71.593-47.703-59.592 59.53 47.77 71.772 13.701-13.819c-8.484 12.974-15.037 27.402-20.004 42.435l-77.169 15.642v84.26l78.746 15.759c6.067 16.916 15.217 32.010 25.708 46.075l-23.521-23.767-47.918 71.654 59.74 59.74 71.588-47.739-24.366-24.371c14.792 11.156 30.669 20.977 48.614 27.1l15.58 79.048h85.171l15.759-79.048c14.31-5.094 27.525-12.216 40.069-20.49l-17.393 17.428 72.253 48.404 60.262-60.436-48.256-72.627-15.882 15.944c9.088-13.885 16.364-28.795 21.335-44.918l78.868-15.887v-85.652l-83.482-16.799zM758.963 324.941c-51.768 0-93.722-42.189-93.722-94.326 0-52.009 41.948-94.141 93.722-94.141 51.651 0 93.66 42.132 93.66 94.141 0 52.137-42.010 94.326-93.66 94.326v0zM139.551 696.177c0 17.28 13.88 31.16 30.976 31.16h682.947c17.096 0 30.981-13.88 30.981-31.16 0-17.091-13.885-30.976-30.981-30.976h-682.947c-17.096 0-30.976 13.885-30.976 30.976v0zM542.976 541.112h-372.449c-17.096 0-30.976 13.88-30.976 30.976s13.88 30.976 30.976 30.976h372.449c17.28 0 31.16-13.88 31.16-30.976s-13.88-30.976-31.16-30.976v0zM946.586 477.645v260.874c0 28.099-27.766 50.77-62.136 50.77h-744.899c-34.191 0-62.136-22.671-62.136-50.77v-457.103c0-27.945 27.945-50.801 62.136-50.801h310.313c0-44.191 9.667-85.955 26.245-124.083h-336.558c-68.562 0-124.088 55.526-124.088 124.083v558.674c0 68.562 55.526 124.273 124.088 124.273h744.899c68.562 0 124.088-55.706 124.088-124.268v-373.965c-17.638 23.7-38.431 44.518-61.952 62.316v0zM975.017 70.461l-60.257-60.442-72.141 48.435 84.326 84.623 48.072-72.617z" />
<glyph unicode="&#xe610;" d="M991.877 243.482v-82.785l-80.676-16.169c-18.452-46.812-56.591-83.308-103.869-100.004l-15.411-76.396h-81.608l-15.232 76.104c-14.060 4.685-27.008 11.602-39.076 19.625l17.454-17.516-69.192-46.172-57.585 57.651 46.167 69.366 13.24-13.476c-8.207 12.657-14.592 26.542-19.333 41.129l-74.578 14.996v81.495l76.047 15.232c5.914 16.343 14.766 30.874 24.899 44.467l-22.728-22.845-46.346 69.192 57.764 57.708 69.248-46.106-23.608-23.557c14.234 10.839 29.645 20.27 46.986 26.189l15.053 76.396h82.314l15.176-76.396c13.942-4.92 26.716-11.837 38.779-19.804l-16.809 16.876 69.832 46.751 58.235-58.348-46.633-70.246-15.35 15.411c8.852-13.414 15.882-27.832 20.623-43.356l76.216-15.411zM750.735 299.136c-50.089 0-90.691-40.776-90.691-91.162 0-50.212 40.602-90.988 90.691-90.988 49.853 0 90.455 40.776 90.455 90.988 0 50.386-40.602 91.162-90.455 91.162v0zM811.899 508.052h-179.973c-66.263 0-119.926 53.663-119.926 119.921v179.978c0 66.258 53.663 119.926 119.926 119.926h179.973c66.258 0 120.1-53.663 120.1-119.926v-179.973c0-66.263-53.837-119.926-120.1-119.926v0zM811.899 807.951h-179.973v-179.973h179.973v179.973zM332.027 28.001h-179.978c-66.258 0-119.926 53.842-119.926 120.1v179.973c0 66.263 53.668 119.926 119.926 119.926h179.973c66.258 0 119.926-53.663 119.926-119.926v-179.973c0-66.263-53.663-120.1-119.921-120.1v0zM332.027 328.074h-179.978v-179.973h179.973v179.973h0.005zM332.027 508.052h-179.978c-66.258 0-119.926 53.663-119.926 119.926v179.973c0 66.258 53.663 119.926 119.926 119.926h179.973c66.258 0 119.926-53.663 119.926-119.926v-179.973c0-66.263-53.663-119.926-119.921-119.926v0zM959.473 53.192l-58.235-58.409-69.714 46.812 81.495 81.792 46.454-70.195z" />
<glyph unicode="&#xe611;" d="M512-62.474c-247.030 0-447.145 200.207-447.145 447.145 0 202.24 135.245 371.128 319.391 426.337v-134.026c-112.66-49.403-191.636-161.408-191.636-292.311 0-176.415 142.976-319.36 319.391-319.36 176.415 0 319.396 142.945 319.396 319.36 0 130.903-78.853 243.128-191.642 292.439v134.026c184.151-55.24 319.391-224.225 319.391-426.465 0-246.943-200.115-447.145-447.145-447.145v0zM543.939 384.671h-63.882c-17.587 0-31.933 14.316-31.933 31.964v510.991c0 17.654 14.346 31.969 31.933 31.969h63.882c17.592 0 31.944-14.316 31.944-31.969v-510.991c0.005-17.649-14.351-31.964-31.944-31.964v0z" />
<glyph unicode="&#xe612;" d="M449.7 260.89v124.78h561.516v-124.78h-561.516zM449.7 603.991h561.516v-124.718h-561.516v124.718zM379.51 831.406c-211.42-73.329-323.379-304.486-250.143-516.229 73.267-211.666 304-323.896 515.42-250.476 51.881 18.033 97.761 45.696 136.361 80.061l90.778-40.335c-53.064-56.054-119.788-100.9-197.709-127.949-260.009-90.296-543.724 47.642-633.836 308.111-90.086 260.454 47.647 544.778 307.564 635.044 190.495 66.109 393.324 9.354 523.832-127.857l-78.295-52.157c-106.25 102.697-264.822 143.606-413.972 91.786v0z" />
<glyph unicode="&#xe613;" d="M512.036-33.28c-265.815 0-481.316 215.501-481.316 481.331 0 265.784 215.501 481.229 481.316 481.229 265.805 0 481.244-215.444 481.244-481.229 0-265.83-215.439-481.331-481.244-481.331v0zM512.036 839.035c-215.997 0-391.071-175.073-391.071-390.984 0-216.008 175.073-391.091 391.071-391.091 215.921 0 391.004 175.078 391.004 391.091 0 215.91-175.078 390.984-391.004 390.984v0zM675.676 310.472c-71.854 0-130.074 57.283-130.074 127.887 0 70.559 58.22 127.811 130.074 127.811 71.788 0 130.074-57.252 130.074-127.811 0-70.61-58.286-127.887-130.074-127.887v0zM675.676 493.169c-30.73 0-55.757-24.53-55.757-54.815 0-30.239 25.027-54.799 55.757-54.799 30.787 0 55.695 24.561 55.695 54.799 0 30.29-24.914 54.815-55.695 54.815v0zM508.513 438.354c0-90.813 74.808-164.372 167.163-164.372 44.416 0 84.541 17.275 114.447 45.117 1.060-1.229 2.289-2.463 3.292-3.523 27.791-27.494 0-78.136 0-78.136h-569.989c0 0-27.73 50.642 0 78.136 24.704 25.969 67.507 83.487 229.361 133.617-37.13 29.286-62.572 86.303-62.572 152.929 0 118.707 42.066 146.668 118.205 146.668 76.124 0 118.19-27.556 118.19-146.668 0-2.56-0.236-5.023-0.292-7.552-68.029-20.767-117.806-82.452-117.806-156.216v0z" />
<glyph unicode="&#xe614;" d="M512-25.661c-270.013 0-488.965 218.921-488.965 488.95h91.674c0-219.412 177.859-397.271 397.292-397.271s397.292 177.859 397.292 397.271h91.674c0-270.029-218.957-488.95-488.965-488.95v0zM692.695 423.956c-79.944 0-144.763 64.998-144.763 145.183 0 80.159 64.819 145.183 144.763 145.183 79.913 0 144.676-65.024 144.676-145.183 0-80.184-64.763-145.183-144.676-145.183v0zM692.695 631.301c-34.258 0-62.013-27.843-62.013-62.162 0-34.345 27.756-62.28 62.013-62.28 34.232 0 61.978 27.935 61.978 62.28 0 34.319-27.745 62.162-61.978 62.162v0zM506.568 569.139c0-103.107 83.348-186.619 186.127-186.619 49.418 0 94.003 19.753 127.334 51.256 1.254-1.403 2.509-2.836 3.671-4.091 30.92-31.232 0-88.643 0-88.643h-634.235c0 0-30.915 57.416 0 88.643 27.423 29.604 75.085 94.781 255.268 151.777-41.329 33.152-69.647 97.94-69.647 173.532 0 134.825 46.73 166.671 131.487 166.671 84.69 0 131.456-31.334 131.456-166.671 0-2.924-0.358-5.668-0.42-8.504-75.776-23.695-131.041-93.614-131.041-177.352v0z" />
<glyph unicode="&#xe615;" d="M512.036-40.996c-270.039 0-488.996 218.967-488.996 488.996s218.957 488.996 488.996 488.996c270.049 0 488.924-218.967 488.924-488.996s-218.875-488.996-488.924-488.996v0zM512.036 845.317c-219.459 0-397.312-177.869-397.312-397.317s177.853-397.317 397.312-397.317c219.372 0 397.24 177.869 397.24 397.317s-177.864 397.317-397.24 397.317v0zM797.901 234.051h-579.082c0 0-28.17 51.42 0 79.442 25.083 26.414 68.598 84.762 233.037 135.675-37.755 29.752-63.596 87.68-63.596 155.366 0 120.602 42.767 149.105 120.105 149.105 77.343 0 120.105-28.027 120.105-149.105 0-67.599-25.846-125.763-63.508-155.699 160.86-50.913 208.466-109.020 232.934-135.347 28.268-28.017 0.005-79.437 0.005-79.437v0z" />
<glyph unicode="&#xe616;" d="M800.548 65.623v183.419c61.368 88.776 81.976 204.022 43.955 313.713-10.614 30.653-26.348 57.871-43.955 83.502v184.294c73.236-55.281 131.297-132.163 163.569-225.439 69.74-201.364-2.616-417.439-163.569-539.489v0zM512.906 288.317c-88.212 0-159.693 71.48-159.693 159.693 0 88.402 71.48 159.887 159.693 159.887 88.371 0 159.857-71.48 159.857-159.887-0.005-88.218-71.485-159.693-159.857-159.693v0zM59.945 291.062c-86.656 250.22 45.665 523.259 295.357 610.099 107.223 37.115 218.445 33.649 317.46-1.746v-140.186c-82.284 42.204-180.424 52.475-274.57 19.886-183.076-63.273-280.003-262.927-216.54-445.844 63.462-182.861 263.27-279.624 446.346-216.387 15.857 5.622 30.157 13.302 44.764 20.792v-141.030c-1.377-0.558-2.627-1.060-3.999-1.623-249.815-86.656-522.322 45.88-608.819 296.038v0z" />
<glyph unicode="&#xe617;" d="M511.923-36.69c-267.699 0-484.69 216.991-484.69 484.69s216.991 484.69 484.69 484.69c267.73 0 484.833-216.991 484.833-484.69s-217.103-484.69-484.833-484.69v0zM511.923 811.238c-200.627 0-363.233-162.642-363.233-363.238 0-200.602 162.611-363.203 363.238-363.203 200.627 0 363.412 162.606 363.412 363.203 0 200.596-162.79 363.238-363.418 363.238v0zM673.198 388.173h-322.406c-44.442 0-80.625 26.803-80.625 59.827s36.183 59.827 80.625 59.827h322.406c44.498 0 80.481-26.803 80.481-59.827s-35.978-59.827-80.481-59.827v0z" />
<glyph unicode="&#xe618;" d="M993.244 418.918c2.371-4.444 17.055-65.101-19.697-143.672 0-2.171 22.067-94.177-39.516-143.437 2.504-2.243 24.637-130.007-118.077-179.528-34.575-4.408-276.47-47.939-540.027 59.607-36.946-2.176-202.317 0-202.317 0s-65.459 7.706-65.459 84.101c0 78.5-1.843 388.029-1.843 388.029s18.376 76.329 67.308 67.502c120.653 0 202.317 0 202.317 0s148.444 152.264 165.499 208.374c17.321 55.91 27.264 302.746 275.937 143.468 14.689-13.435 93.583-76.329 19.625-269.061 12.38 2.176 376.904 62.7 256.251-215.383v0zM141.117 214.2c-27.197 0-67.507-42.675-67.507-67.308 0-24.832 40.305-67.507 67.507-67.507s67.502 42.675 67.502 67.507c0 24.632-40.3 67.308-67.502 67.308v0zM882.867 551.521h-269.619c0 0-1.316 58.481 0 67.308 48.010 29.24 62.172 121.933 64.742 141.066-2.57 155.786-105.964 100.797-118.282 89.564-44.319-186.112-83.635-183.905-98.391-197.34-126.909-196.224-197.176-161.454-197.176-161.454v-394.675c0 0 32.005 0 78.894 0 40.699-28.191 256.051-71.788 256.051-71.788s6.262 0 137.907 0c151.603 15.672 93.65 140.14 98.591 143.437 104.648 31.478 34.447 122.363 39.383 125.655 75.008 64.015 27.064 84.035 19.692 89.764-11.064 30.162 10.998 47.089 19.692 53.673 70.267 110.013-31.483 114.79-31.483 114.79v0z" />
<glyph unicode="&#xe619;" d="M935.634 348.539c-116.588 0-195.502 0-195.502 0 0-0.067-143.442-146.627-159.923-200.653-16.768-53.903-26.378-291.338-266.68-138.102-14.188 12.984-90.429 73.38-18.964 258.949-11.96-2.166-364.206-60.457-247.619 207.176-2.289 4.454-16.481 62.556 19.031 138.286 0 2.135-21.32 90.624 38.246 138.102-2.55 2.135-23.869 125.117 114.038 172.59 33.475 4.424 267.156 46.362 521.871-57.277 35.707 2.166 195.502 0 195.502 0s63.258-7.444 63.258-80.855c0-75.51 1.782-373.407 1.782-373.407s-17.751-73.528-65.039-64.809v0zM751.529 786.76c0 0-30.93 0-76.242 0-39.327 27.013-247.46 69.14-247.46 69.14s-6.047 0-133.263 0c-146.499-15.114-90.496-134.881-95.268-138.255-101.12-30.228-33.28-117.478-38.057-120.883-72.489-61.476-26.158-80.855-19.026-86.17 10.691-29.179-10.629-45.343-19.031-51.927-67.84-105.738 30.418-110.126 30.418-110.126h260.541c0-0.067 1.275-56.387 0-65.039-46.397-28.129-60.073-117.35-62.556-135.613 2.483-150.001 102.395-97.050 114.294-86.231 42.829 179.144 80.824 176.85 95.268 189.834 122.476 188.882 190.382 155.469 190.382 155.469v379.802zM870.405 802.765c-26.281 0-65.229-41.047-65.229-65.039 0-23.798 38.948-64.881 65.229-64.881 26.286 0 65.229 41.078 65.229 64.881 0 23.992-38.943 65.039-65.229 65.039v0z" />
<glyph unicode="&#xe61a;" d="M511.918-35.927l-483.758 483.927 483.758 483.922v-967.849zM511.918 586.173h483.922v-276.352h-483.922v276.352z" />
<glyph unicode="&#xe61b;" d="M512.087 931.922l483.753-483.922-483.753-483.927v967.849zM512.087 309.827h-483.927v276.352h483.922v-276.352h0.005z" />
<glyph unicode="&#xe61c;" d="M938.619 60.908h-387.092c0 0-32.287-18.447-39.521-31.606-7.24 0-7.88 0-7.88 0-7.27 13.158-39.511 31.606-39.511 31.606h-379.187c-43.638 0-79.032 35.354-79.032 78.996v647.803c0 43.633 35.395 78.991 79.032 78.991h379.192c17.526-2.217 39.511-31.606 39.511-31.606s1.71 0 7.88 0c12.083 21.484 39.516 31.606 39.516 31.606h387.092c43.633 0 78.986-35.359 78.986-78.991v-647.808c0-43.638-35.348-78.991-78.986-78.991v0zM54.707 787.707v-678.528c0 0 420.342 0 425.272 0 2.877-1.311 5.391-2.826 7.905-4.337v710.364c-4.695 2.243-7.905 3.215-7.905 3.215h-425.272v-30.715zM969.339 818.427c0 0-408.817 0-433.172 0-2.857-0.809-5.402-1.843-7.916-2.913v-710.825c4.623 2.842 7.916 4.49 7.916 4.49h433.172v709.248zM393.492 518.651h-229.074c-17.459 0-16.241-1.213-16.241 16.246s-1.219 16.246 16.241 16.246h229.074c17.469 0 16.246 1.208 16.246-16.246s1.224-16.246-16.246-16.246v0zM417.224 234.25h-221.199c-17.464 0-16.246-1.178-16.246 16.251 0 17.449-1.213 16.241 16.246 16.241h221.199c17.428 0 16.21 1.208 16.21-16.241 0-17.434 1.219-16.251-16.21-16.251v0zM859.628 660.859h-229.1c-17.469 0-16.261-1.219-16.261 16.246 0 17.459-1.208 16.241 16.261 16.241h229.1c17.434 0 16.21 1.219 16.21-16.241 0-17.464 1.224-16.246-16.21-16.246v0zM812.206 376.458h-181.678c-17.469 0-16.261-1.224-16.261 16.241 0 17.469-1.208 16.241 16.261 16.241h181.678c17.454 0 16.241 1.229 16.241-16.241s1.213-16.241-16.241-16.241v0zM385.618 660.859h-237.015c-17.434 0-16.246-1.219-16.246 16.246 0 17.459-1.183 16.241 16.246 16.241h237.015c17.464 0 16.246 1.219 16.246-16.241 0-17.464 1.219-16.246-16.246-16.246v0zM393.492 376.458h-181.683c-17.464 0-16.246-1.224-16.246 16.241 0 17.469-1.213 16.241 16.246 16.241h181.683c17.469 0 16.246 1.229 16.246-16.241s1.224-16.241-16.246-16.241v0zM875.407 518.651h-236.979c-17.459 0-16.241-1.213-16.241 16.246s-1.219 16.246 16.241 16.246h236.979c17.469 0 16.241 1.208 16.241-16.246-0.005-17.454 1.229-16.246-16.241-16.246v0zM835.896 234.25h-229.069c-17.469 0-16.251-1.178-16.251 16.251 0 17.449-1.219 16.241 16.251 16.241h229.069c17.464 0 16.251 1.208 16.251-16.241 0-17.434 1.213-16.251-16.251-16.251v0z" />
<glyph unicode="&#xe61d;" d="M244.326-43.54h-80.968c-21.652 0-39.183 17.567-39.183 39.209v925.117c-0.005 21.652 17.526 39.214 39.183 39.214h80.968c21.658 0 39.183-17.562 39.183-39.214v-925.117c0.005-21.642-17.521-39.209-39.183-39.209v0zM886.241-43.54h-64.317c-21.652 0-39.183 17.567-39.183 39.209v846.725c0 21.652 17.541 39.209 39.183 39.209h64.317c21.658 0 39.219-17.562 39.219-39.209v-846.72c0-21.647-2.202-39.209-23.859-39.209h-15.36zM503.526 724.782h59.203c21.652 0 39.209-17.531 39.209-39.183v-689.92c0-21.652-17.562-39.214-39.209-39.214h-59.203c-21.652 0-39.183 17.567-39.183 39.214v689.92c0 21.652 17.531 39.183 39.183 39.183v0zM39.219 34.888h925.112c21.658 0 39.183-17.572 39.183-39.219s-17.526-39.209-39.183-39.209h-925.112c-21.652 0-39.214 17.567-39.214 39.209 0 21.652 17.562 39.219 39.214 39.219v0z" />
<glyph unicode="&#xe61e;" d="M919.050 368.159c6.036 28.529 9.272 58.066 9.272 88.402 0 234.598-190.182 424.781-424.781 424.781s-424.755-190.182-424.755-424.781c0-30.198 3.2-59.638 9.211-88.069-13.548-3.538-45.655-14.31-71.286-40.474-10.808 41.047-16.62 84.127-16.62 128.543 0 278.052 225.423 503.439 503.444 503.439 278.052 0 503.439-225.388 503.439-503.439 0-43.52-5.535-85.77-15.918-126.044-12.447 12.308-34.396 26.926-72.008 37.642v0zM194.319 165.524c77.45-82.294 187.279-133.714 309.222-133.714 121.938 0 231.793 51.42 309.258 133.714h101.417c-91.208-128.476-241.121-212.403-410.67-212.403-169.559 0-319.432 83.932-410.639 212.403h101.412zM999.47 212.716h-171.331c26.194 59.699-16.317 108.524-42.25 131.22 1.070 0.328 2.068 0.732 3.164 1.060-22.62 18.161-38.001 53.463-38.001 94.075 0 73.083 25.897 89.969 72.817 89.969 46.889 0 72.817-17.152 72.817-89.969 0-40.576-15.416-75.75-38.047-93.875 99.313-30.73 125.65-65.833 140.831-81.761 17.091-16.886 0-50.719 0-50.719v0zM217.411 344.96c1.065-0.328 2.033-0.696 3.098-1.024-25.861-22.697-68.173-71.552-42.081-131.22h-170.86c0 0-17.019 33.833 0 50.719 15.155 15.923 41.385 51.031 140.462 81.761-22.595 18.125-37.944 53.299-37.944 93.875 0 72.817 25.83 89.969 72.622 89.969 46.751 0 72.581-16.886 72.581-89.969-0.005-40.612-15.288-75.95-37.878-94.111v0zM502.999 393.856c-61.896 0-112.092 74.583-112.092 166.62 0 113.229 39.88 139.93 112.092 139.93 72.223 0 112.097-26.26 112.097-139.93 0-92.037-50.191-166.62-112.097-166.62v0zM773.345 212.716h-276.92v207.8c0 0 1.633 0 39.547 0 166.487-49.162 213.473-107.453 237.368-133.279 26.363-26.266 0.005-74.522 0.005-74.522v0zM232.658 212.716c0 0-26.26 48.256 0 74.522 24.361 25.825 67.011 84.122 236.636 133.279 38.615 0 40.315 0 40.315 0v-207.8h-276.951z" />
<glyph unicode="&#xe61f;" d="M138.097 870.692v-0.23l83.564-43.945-87.895-7.695-0.067-0.604-1.347-0.102-9.206-95.667-43.581 91.254-1.28-0.102-0.169 0.374-78.116-6.82 54.835 57.39-0.302 0.64 0.302 0.302-31.084 65.085 62.060-32.63 0.41 0.369 0.568-0.302 59.238 61.993-8.571-88.97 0.64-0.338zM955.325 629.176l-0.312-0.671 58.737-61.22-83.666 7.291-0.2-0.41-1.347 0.102-46.71-97.372-9.876 102.042-1.439 0.138-0.072 0.666-94.182 8.166 89.539 46.868v0.271l0.676 0.369-9.165 94.92 63.473-66.12 0.635 0.302 0.404-0.43 66.499 34.806-33.306-69.386 0.312-0.333zM204.319 502.4l-0.2-0.43 41.298-42.337-59.244 6.108-0.23-0.466-0.164 0.031-29.266-59.771-5.115 62.863-0.435 0.031-0.067 0.942-63.708 6.615 60.785 31.155-0.067 0.906 0.23 0.128-4.536 55.885 38.241-39.214 0.399 0.205 0.205-0.205 43.341 22.216-21.734-44.385 0.266-0.276zM846.356 360.847l-0.072-0.707 48.727-24.965-51.077-5.243-0.067-0.768-0.312-0.036-4.091-50.304-23.491 47.816h-0.138l-0.159 0.374-47.514-4.905 33.096 33.869-0.159 0.328 0.23 0.241-17.439 35.517 34.744-17.782 0.169 0.169 0.328-0.169 30.643 31.355-3.625-44.692 0.205-0.097zM751.37 844.017l-0.072-0.707 48.717-24.965-51.072-5.274-0.061-0.742-0.302-0.031-4.101-50.294-23.501 47.811h-0.128l-0.159 0.364-47.514-4.905 33.096 33.869-0.169 0.369 0.236 0.205-17.434 35.517 34.744-17.772 0.169 0.164 0.328-0.164 30.643 31.35-3.63-44.692 0.21-0.102zM465.295 814.679l-0.23-0.502 49.592-50.77-71.204 7.322-0.266-0.532h-0.205l-35.144-71.675-6.154 75.402-0.502 0.031-0.072 1.142-76.539 7.895 73.016 37.396-0.067 1.075 0.266 0.128-5.443 67.011 45.937-47.007 0.502 0.236 0.236-0.236 52.045 26.644-26.102-53.222 0.333-0.338zM506.788 211.021c-92.093 0-166.789 108.995-166.789 243.507 0 165.545 59.372 204.554 166.789 204.554 107.453 0 166.794-38.4 166.794-204.554 0.005-134.513-74.66-243.507-166.794-243.507v0zM909.056-53.75h-412.073v303.713c0 0 2.447 0 58.87 0 247.736-71.834 317.65-157.046 353.203-194.816 39.245-38.339 0-108.897 0-108.897v0zM104.53-53.75c0 0-39.112 70.559 0 108.902 36.255 37.77 99.727 122.982 352.097 194.816 57.492 0 59.971 0 59.971 0v-303.713l-412.068-0.005z" />
<glyph unicode="&#xe620;" d="M880.302 327.46c-1.582-97.582-90.957-170.020-91.761-170.020-156.549-130.668-370.867-119.639-370.094-119.639-432.548 23.598-417.51 262.129-417.51 261.33-14.228 123.592 139.172 276.664 139.172 277.064 113.080 112.179 208.753 144.829 208.753 144.829 207.99 61.414 145.536-119.649 145.536-119.649-10.286-29.102 8.704-18.888 9.472-18.888 39.542 22.072 123.361 33.853 123.361 34.627 115.471 17.347 127.319-57.431 126.515-56.658 7.137-35.425-11.044-80.266-12.657-81.869-5.524-7.88 0-12.595 0-12.595 14.259-3.144 45.102-15.739 44.298-15.739 102.815-49.603 94.915-123.571 94.915-122.793v0zM708.168 322.232c-10.051 108.227-153.569 183.465-320.568 168.125-166.999-15.37-294.211-115.548-284.17-223.785 10.045-108.201 153.569-183.48 320.568-168.11 167.004 15.35 294.252 115.538 284.17 223.77v0zM410.977 141.44c-86.866-20.669-168.837 22.6-183.905 96.108-14.935 73.062 41.723 149.576 127.38 171.474 86.533 22.134 170.45-19.661 186.619-93.926 16.307-74.706-42.291-152.724-130.094-173.655v0zM385.961 261.248c-5.862 25.651-33.787 40.090-62.822 31.611-29.64-8.632-48.287-37.509-41.221-63.821 6.963-25.82 35.932-38.717 64.328-29.43 27.863 9.139 45.44 36.46 39.716 61.64v0zM432.707 314.798c-5.719 7.572-17.807 8.402-27.054 1.91-9.242-6.508-12.155-17.879-6.461-25.452 5.693-7.572 17.812-8.407 27.054-1.91 9.252 6.492 12.124 17.884 6.461 25.452v0zM832.84 530.55c0 0-43.658 0-28.462 47.252 0 0 12.662 61.716-47.457 75.546-0.64-0.604-7.593 5.693-34.796 0 0 0-41.748 2.545-31.642 44.104 0.63-0.64-1.92 15.099 28.457 22.031 1.915 0.64 149.32 20.762 151.864-129.091-0.655-1.275 8.858-58.568-37.965-59.843v0zM997.33 508.508c0.64 0-7.598-27.694-47.462-22.036-1.27 1.28-25.303-0.635-28.467 37.811 0 0 43.034 110.807-44.293 201.487-0.599 0.635-63.252 63.59-158.167 53.514-0.599 0-61.972-18.888-63.252 34.657 0 1.244-3.139 44.703 69.581 44.068 0-0.64 144.266 16.374 237.261-113.352 0.645-0.635 77.819-112.712 34.801-236.15v0z" />
<glyph unicode="&#xe621;" d="M871.188 643.185c-39.854 0-76.82-12.334-107.397-33.295-24.965 40.791-59.433 75.064-100.229 100.024 21.033 30.582 33.398 67.61 33.398 107.525 0 6.451-0.307 12.769-0.942 19.052 84.239-41.667 152.878-110.008 194.473-194.273-6.339 0.625-12.79 0.968-19.302 0.968v0zM317.752 69.53c-84.234 41.626-152.607 110.239-194.273 194.442 6.282-0.64 12.631-0.942 19.082-0.942 39.916 0 76.913 12.324 107.489 33.367 24.96-40.791 59.233-75.233 100.029-100.198-21.007-30.546-33.3-67.533-33.3-107.412 0-6.528 0.338-12.908 0.973-19.256v0zM250.051 609.818c-30.577 21.028-67.574 33.367-107.489 33.367-6.451 0-12.8-0.302-19.082-0.942 41.667 84.204 110.003 152.878 194.273 194.514-0.64-6.349-0.973-12.8-0.973-19.318 0-39.89 12.298-76.841 33.3-107.418-40.796-24.97-75.069-59.412-100.029-100.204v0zM763.694 296.397c30.577-21.002 67.599-33.367 107.494-33.367 6.441 0 12.79 0.302 19.082 0.942-41.667-84.198-110.003-152.883-194.278-194.478 0.64 6.349 0.973 12.769 0.973 19.292 0 39.88-12.329 76.81-33.3 107.387 40.832 24.919 75.095 59.433 100.029 100.224v0zM142.561 310.538c-78.725 0-142.561 63.841-142.561 142.566s63.836 142.566 142.561 142.566c78.73 0 142.572-63.841 142.572-142.566-0.005-78.725-63.841-142.566-142.572-142.566v0zM871.188 310.538c-78.73 0-142.541 63.841-142.541 142.561 0 78.725 63.811 142.566 142.541 142.566 78.761 0 142.561-63.841 142.561-142.566 0-78.72-63.8-142.561-142.561-142.561v0zM506.89 674.862c-78.761 0-142.566 63.841-142.566 142.572 0 78.725 63.805 142.566 142.566 142.566 78.725 0 142.566-63.841 142.566-142.566 0-78.73-63.841-142.572-142.566-142.572v0zM506.89-53.791c-78.761 0-142.566 63.841-142.566 142.572 0 78.761 63.805 142.561 142.566 142.561 78.725 0 142.566-63.8 142.566-142.561 0-78.73-63.841-142.572-142.566-142.572v0z" />
<glyph unicode="&#xe622;" d="M663.598 283.617c-30.551-24.259-24.463-72.264-24.463-81.3-0.543-81.311-54.323-66.284-54.323-66.284s-95.119 0-158.438 0c-63.329 3.932-54.426 67.963-53.852 68.536-0.102 66.186-25.006 79.626-31.124 85.847-83.763 73.37-89.375 173.404-89.134 202.040-0.072 2.657-0.21 5.32-0.21 8.003 0 140.093 113.51 253.64 253.542 253.64 140.027 0 253.542-113.541 253.542-253.64 6.646-115.763-77.793-198.789-95.539-216.842v0zM506.092 690.601c-105.032 0-190.643-99.062-190.643-201.912 0-0.942 0.128-1.818 0.128-2.765-0.128 0-0.241 0-0.369 0-4.035-90.276 60.605-144.763 74.757-159.084 33.142-27.832 32.333-71.588 32.333-71.588s2.422-25.047 2.022-31.8c-1.213-25.078 16.164-23.864 16.164-23.864s108.698-0.399 127.293 0c18.586 0.404 18.181 19.901 18.181 19.901s0.804 9.139 2.022 35.763c-0.399 52.905 37.412 75.592 40.433 79.56 63.16 58.849 67.318 124.426 66.954 144.66 0.164 3.067 0.466 6.118 0.466 9.216-0.005 102.851-84.7 201.912-189.742 201.912v0zM426.368 120.161h158.438c14.597 0 21.688-23.526 21.688-37.842 0-14.321-7.096-25.549-21.688-25.549h-158.438c-14.556 0-21.678 11.228-21.678 25.549 0 14.316 7.086 37.842 21.678 37.842v0zM426.368 40.94h158.438c14.597 0 21.688-11.96 21.688-26.281 0-14.326-7.096-21.248-21.688-21.248h-143.724l1.116-15.862h126.781l0.241 12.477c0.302-1.92 0.604-3.84 0.604-5.821 0-21.176-17.48-38.354-38.984-38.354h-52.782c-21.509 0-38.989 17.178-38.989 38.354 0 3.226 0.604 6.252 1.377 9.206h-14.080c-14.556 0-21.678 6.927-21.678 21.248s7.086 26.281 21.678 26.281v0zM933.437 484.618h-118.845c-2.796 0-5.417 0.604-7.931 1.449v60.498c2.514 0.845 5.135 1.449 7.931 1.449h118.851c16.266 0 31.662-15.862 31.662-31.662-0.005-15.8-15.401-31.734-31.667-31.734v0zM744.335 706.432c-2.417-2.35-4.342-4.966-7.265-6.344l-40.581 39.972c0 0 2.063 2.877 6.164 6.84l85.14 82.657c11.5 11.156 30.188 11.156 41.718 0 11.489-11.197 11.489-29.317 0-40.474l-85.176-82.652zM473.897 928.302c0 15.8 15.391 31.698 31.693 31.698s31.688-15.898 31.688-31.698v-118.851h-63.38v118.851zM267.919 698.532l-87.158 87.153c-11.597 11.264-12.201 33.004-0.635 44.273 11.597 11.223 28.667 14.52 40.233 3.256l95.089-95.048c0-0.005-42.424-44.744-47.529-39.634zM204.529 484.618h-126.787c-16.266 0-31.662 15.933-31.662 31.734s15.396 31.662 31.662 31.662h126.792v-63.396h-0.005zM252.052 310.308l39.096-42.655-69.212-67.292c-11.566-11.264-30.316-11.264-41.882 0-11.602 11.259-11.602 29.512 0 40.735l71.997 69.212zM828.672 241.234c11.5-11.162 11.5-29.312 0-40.463-11.494-11.203-30.152-11.203-41.682 0l-68.941 67.016 40.335 41.748 70.287-68.301z" />
<glyph unicode="&#xe623;" d="M925.583 638.904c0 0 0.23 0 0 0v0zM846.034-61.102h-668.18c-43.935 0-79.539 35.64-79.539 79.575v859.080c0 43.935 35.604 79.544 79.539 79.544h429.563l318.172-318.193v-620.431c-0.005-43.935-35.62-79.575-79.555-79.575v0zM846.034 638.904h-159.089c-43.935 0-79.529 35.63-79.529 79.539v159.109h-429.563v-859.080h668.18v620.431z" />
<glyph unicode="&#xe624;" d="M547.415 23.839c-258.514 0-468.086 209.562-468.086 468.076 0 32.21 3.405 63.677 9.626 94.034l-88.955 15.217 150.743 128.768 103.122-172.186-86.559 14.807c-5.555-26.015-8.586-52.977-8.586-80.64 0-214.651 174.034-388.649 388.695-388.649 214.651 0 388.654 173.998 388.654 388.649 0 214.656-174.003 388.695-388.654 388.695-54.124 0-105.61-11.075-152.428-31.063l-40.218 68.956c58.762 26.588 123.955 41.498 192.645 41.498 258.514 0 468.086-209.577 468.086-468.086 0-258.514-209.572-468.076-468.086-468.076v0zM546.877 476.268c-62.433 0-113.050 75.254-113.050 168.038 0 114.232 40.218 141.153 113.050 141.153s113.050-26.522 113.050-141.153c0-92.785-50.616-168.038-113.050-168.038v0zM819.517 293.581h-279.306v209.577c0.005 0 1.684 0 39.916 0 167.91-49.577 215.301-108.375 239.396-134.426 26.583-26.45-0.005-75.151-0.005-75.151v0zM274.232 293.581c0 0-26.522 48.701 0 75.151 24.571 26.056 67.579 84.854 238.623 134.426 38.973 0 40.653 0 40.653 0v-209.577h-279.276z" />
<glyph unicode="&#xe625;" d="M872.632-55.47h-682.24c-43.822 0-79.334 35.543-79.334 79.365v111.063h47.59c35.031 0 63.473 28.401 63.473 63.442v31.734c0 35.072-28.442 63.478-63.473 63.478h-47.59v79.329h47.59c35.031 0 63.473 28.406 63.473 63.468v31.744c0 35.031-28.442 63.442-63.473 63.442h-47.59v79.324h47.59c35.031 0 63.473 28.442 63.473 63.473v31.739c0 35.036-28.442 63.473-63.473 63.473h-47.59v111.063c0 43.822 35.512 79.334 79.334 79.334h682.24c43.822 0 79.319-35.512 79.319-79.334v-856.771c0-43.822-35.502-79.365-79.319-79.365v0zM729.825 349.143c-101.002 36.209-79.293 70.339-72.837 77.814 0.507 0.507 0.881 1.039 1.449 1.51 0-0.748 2.729 34.698 23.793 55.532 6.467 2.959 20.326 28.744 0 55.532-0.968 0.973 34.693 91.715-31.734 158.653-9.431 6.461 7.434 27.766-31.708 7.941-5.484-1.48-90.767 8.417-134.886-55.532-5.453-19.354-10.906-58.998 0-87.27 2.488-9.897 6.963-23.291-7.91-31.734-1.981-4.951-11.412-33.219 7.91-47.59 12.892-12.892 28.268-20.562 31.744-55.532 5.315-6.39 7.096-13.865 7.67-18.708 0.635-31.334-61.624-52.603-87.004-60.616-128.128-53.678-111.063-158.653-111.063-158.653h523.587c3.963 109.082-99.144 152.023-119.009 158.653v0zM150.712 634.747h-103.127c-26.286 0-47.585 21.304-47.585 47.596v15.852c0 26.286 21.299 47.621 47.585 47.621h103.122c26.281 0 47.621-21.335 47.621-47.621v-15.852c0.005-26.291-21.335-47.596-47.616-47.596v0zM150.712 396.728h-103.127c-26.286 0-47.585 21.304-47.585 47.59v15.892c0 26.281 21.299 47.585 47.585 47.585h103.122c26.281 0 47.621-21.304 47.621-47.585v-15.892c0.005-26.286-21.335-47.59-47.616-47.59v0zM150.712 158.751h-103.127c-26.286 0-47.585 21.304-47.585 47.59v15.857c0 26.317 21.299 47.621 47.585 47.621h103.122c26.281 0 47.621-21.304 47.621-47.621v-15.857c0.005-26.286-21.335-47.59-47.616-47.59v0z" />
<glyph unicode="&#xe626;" d="M933.381-52.465h-854.282c-43.689 0-79.099 35.4-79.099 79.089v727.731c0 43.699 35.41 79.099 79.099 79.099h142.382v90.977c0 19.661 15.944 35.569 35.61 35.569h7.89c19.661 0 35.604-15.903 35.604-35.569v-90.977h411.315v90.977c0 19.661 15.944 35.569 35.599 35.569h7.926c19.64 0 35.564-15.903 35.564-35.569v-90.977h142.397c43.694 0 79.094-35.405 79.094-79.099v-727.731c-0.005-43.689-35.405-79.089-79.099-79.089v0zM933.381 754.355h-142.397v-75.131c0-19.666-15.923-35.61-35.564-35.61h-7.926c-19.656 0-35.599 15.944-35.599 35.61v75.131h-411.315v-75.131c0-19.666-15.944-35.61-35.604-35.61h-7.89c-19.666 0-35.61 15.944-35.61 35.61v75.131h-142.377v-727.731h854.282v727.731zM332.227 453.791h-94.935c-8.719 0-15.811 7.076-15.811 15.805v63.278c0 8.73 7.091 15.811 15.811 15.811h94.935c8.724 0 15.805-7.086 15.805-15.811v-63.278c0-8.73-7.081-15.805-15.805-15.805v0zM553.702 453.791h-94.93c-8.719 0-15.811 7.076-15.811 15.805v63.278c0 8.73 7.091 15.811 15.811 15.811h94.93c8.73 0 15.805-7.086 15.805-15.811v-63.278c-0.005-8.73-7.076-15.805-15.805-15.805v0zM775.178 453.791h-94.925c-8.73 0-15.816 7.076-15.816 15.805v63.278c0 8.73 7.086 15.811 15.816 15.811h94.925c8.73 0 15.805-7.086 15.805-15.811v-63.278c0-8.73-7.076-15.805-15.805-15.805v0zM332.227 295.562h-94.935c-8.719 0-15.811 7.081-15.811 15.841v63.288c0 8.719 7.091 15.805 15.811 15.805h94.935c8.724 0 15.805-7.086 15.805-15.805v-63.288c0-8.765-7.081-15.841-15.805-15.841v0zM553.702 295.562h-94.93c-8.719 0-15.811 7.081-15.811 15.841v63.288c0 8.719 7.091 15.805 15.811 15.805h94.93c8.73 0 15.805-7.086 15.805-15.805v-63.288c-0.005-8.765-7.076-15.841-15.805-15.841v0zM775.178 295.562h-94.925c-8.73 0-15.816 7.081-15.816 15.841v63.288c0 8.719 7.086 15.805 15.816 15.805h94.925c8.73 0 15.805-7.086 15.805-15.805v-63.288c0-8.765-7.076-15.841-15.805-15.841v0zM332.227 137.364h-94.935c-8.719 0-15.811 7.086-15.811 15.846v63.252c0 8.76 7.091 15.836 15.811 15.836h94.935c8.724 0 15.805-7.076 15.805-15.836v-63.252c0-8.76-7.081-15.846-15.805-15.846v0zM553.702 137.364h-94.93c-8.719 0-15.811 7.086-15.811 15.846v63.252c0 8.76 7.091 15.836 15.811 15.836h94.93c8.73 0 15.805-7.076 15.805-15.836v-63.252c-0.005-8.76-7.076-15.846-15.805-15.846v0zM775.178 137.364h-94.925c-8.73 0-15.816 7.086-15.816 15.846v63.252c0 8.76 7.086 15.836 15.816 15.836h94.925c8.73 0 15.805-7.076 15.805-15.836v-63.252c0-8.76-7.076-15.846-15.805-15.846v0z" />
<glyph unicode="&#xe627;" d="M827.832 347.075v-326.339c0-43.965-35.625-79.631-79.601-79.631h-668.641c-43.965 0-79.59 35.666-79.59 79.631v859.668c0 43.971 35.625 79.596 79.59 79.596h668.636c43.976 0 79.601-35.625 79.601-79.596l-79.596-78.51v78.51h-668.641v-859.668h668.636v248.75l79.606 77.588zM183.066 768.963h461.696c18.949 0 34.657-13.235 38.707-30.93l-49.311-48.66h-451.092c-21.985 0-39.788 17.792-39.788 39.782 0 21.98 17.802 39.808 39.788 39.808v0zM183.066 577.93h338.094l-80.737-79.626h-257.357c-21.985 0-39.788 17.828-39.788 39.813s17.802 39.813 39.788 39.813v0zM143.278 347.075c0 21.996 17.802 39.788 39.788 39.788h144.399l-80.712-79.59h-63.688c-21.985 0-39.788 17.823-39.788 39.803v0zM994.99 585.871l-55.721-55.721-199.004 199.004 55.721 55.721c31.099 31.104 80.364 31.104 111.442 0l87.567-87.562c31.089-31.073 31.089-80.343-0.005-111.442v0zM525.348 116.239c0 0-198.835 199.168-199.004 198.994l382.070 382.075 199.009-199.009-382.075-382.060zM278.595 68.48l7.972 214.917 206.935-206.94-214.907-7.977z" />
<glyph unicode="&#xe628;" d="M931.415 329.938v487.972c0 34.898-28.268 63.16-63.124 63.16h-709.023c7.532 44.805 46.413 78.93 93.327 78.93h663.040c52.311 0 94.705-42.394 94.705-94.735v-442.030c0-46.915-34.156-85.76-78.925-93.297v0zM789.325 170.675h-473.574l-205.245-157.891v157.891h-47.355c-34.883 0-63.15 28.257-63.15 63.124v505.185c0 34.857 28.268 63.155 63.155 63.155h726.17c34.893 0 63.16-28.298 63.16-63.155v-505.185c0-34.867-28.268-63.124-63.16-63.124v0zM773.555 723.21h-694.625v-473.61h94.73v-94.735l126.28 94.735h473.61v473.61h0.005zM221.015 415.365c-39.245 0-71.025 31.811-71.025 71.025 0 39.255 31.785 71.066 71.025 71.066 39.25 0 71.060-31.811 71.060-71.066 0-39.214-31.811-71.025-71.060-71.025v0zM631.47 415.365c-39.219 0-71.030 31.811-71.030 71.025 0 39.255 31.811 71.066 71.030 71.066 39.24 0 71.060-31.811 71.060-71.066 0-39.214-31.821-71.025-71.060-71.025v0zM426.255 415.365c-39.245 0-71.055 31.811-71.055 71.025 0 39.255 31.811 71.066 71.055 71.066 39.219 0 71.030-31.811 71.030-71.066 0-39.214-31.811-71.025-71.030-71.025v0z" />
<glyph unicode="&#xe629;" d="M884.526 44.488h-745.052c-68.572 0-124.114 55.542-124.114 124.119v558.787c0 18.278 4.060 35.41 11.156 50.959l361.37-361.339-310.559-310.554 372.526 248.412h124.298l372.526-248.412-310.559 310.554 361.37 361.339c7.096-15.555 11.156-32.681 11.156-50.959v-558.792c-0.005-68.572-55.547-124.114-124.119-124.114v0zM88.484 840.351c15.58 7.091 32.681 11.156 50.99 11.156h745.052c18.309 0 35.41-4.060 50.995-11.156l-423.521-423.337-423.516 423.337z" />
<glyph unicode="&#xe62a;" d="M892.232 36.25h-760.274c-69.975 0-126.838 56.668-126.838 126.648v570.204c0 69.975 56.863 126.648 126.838 126.648h760.274c69.97 0 126.648-56.673 126.648-126.648v-570.199c0-69.985-56.678-126.653-126.648-126.653v0zM892.232 162.898l-316.908 190.065h-126.648l-316.718-190.065h760.274zM68.541 669.681v-454.938c0-13.486 6.559-25.585 16.952-34.893l46.464 46.464 272.481 163.466-335.898 279.9zM131.958 733.102l380.134-316.718 380.14 316.718h-760.274zM955.459 669.681l-332.621-277.151 332.621-166.216v443.366z" />
<glyph unicode="&#xe62b;" d="M719.698 537.001l-59.392-59.392v-118.61h-237.394l-59.218-59.392v-118.62l59.218-59.392h-296.617c-65.536 0-118.615 53.079-118.615 118.61v534.016c0 17.326 4.055 33.838 10.665 48.701l345.349-345.318-296.791-296.612 356.009 237.23h118.789l404.562 404.71c6.61-14.863 10.66-31.375 10.66-48.701v-370.729l-178.002 133.504-59.223-0.005zM77.594 882.35c14.894 6.779 31.232 10.665 48.701 10.665h712.013c17.469 0 33.812-3.881 48.701-10.665l-404.705-404.741-404.71 404.741zM482.304 299.612h237.399v177.997l296.622-237.399-296.622-237.22v178.002h-237.399c-32.681 0-59.392 26.542-59.392 59.218 0 32.86 26.711 59.402 59.392 59.402v0z" />
<glyph unicode="&#xe62c;" d="M755.205 478.515l-60.913 60.682 293.187 293.156c7.004-15.227 10.926-32 10.926-49.905v-425.651h-243.195v121.718h-0.005zM97.382 893.061c15.258 6.799 32 10.926 49.756 10.926h729.549c17.812 0 34.673-4.127 49.935-10.926l-414.7-414.546-414.541 414.546zM86.456 174.408l364.79 243.251h20.219l-81.075-60.861c0 0-60.856-124.032-60.856-121.533 0-0.655 60.856-121.533 60.856-121.533h-243.251c-67.154 0-121.539 54.385-121.539 121.533v547.185c0 17.9 3.978 34.673 10.957 49.905l353.833-353.838-303.933-304.108zM390.39 235.264l303.903 243.251v-182.395h243.308c33.49 0 60.8-27.377 60.8-60.861 0-33.664-27.31-60.856-60.8-60.856h-243.308v-182.4l-303.903 243.261z" />
<glyph unicode="&#xe62d;" d="M873.334-3.661h-722.662c-66.514 0-120.387 53.862-120.387 120.381v542.003c0 66.514 53.873 79.601 120.387 79.601h80.763v101.059c0 33.347 6.456 50.038 39.624 50.038 33.347 0 39.803-16.696 39.803-50.038v-101.064h402.289v101.064c0 33.347 6.456 50.038 39.793 50.038 33.172 0 39.624-16.696 39.624-50.038v-101.064h80.753c66.519 0 120.392-13.087 120.392-79.601v-542.003c0.010-66.504-53.868-120.376-120.376-120.376v0zM884.244 658.724h-744.479c-16.584 0-30.054-13.466-30.054-30.054s13.466-30.049 30.054-30.049h744.479c16.579 0 30.049 13.466 30.049 30.049 0 16.579-13.471 30.054-30.049 30.054v0zM914.294 558.817h-804.582v-483.057h804.588v483.057zM732.477 257.761h-139.709v139.709h139.709v-139.709z" />
<glyph unicode="&#xe62e;" d="M944.492 190.459h-370.719c-34.028 0-34.028 82.54 0 82.54h370.719c34.15 0 34.15-82.54 0-82.54v0zM923.786 540.672h-823.332v-473.492h349.809v-82.545h-308.849c-68.239 0-123.684 55.265-123.684 123.505v556.037c0 68.239 55.45 82.724 123.684 82.724h82.14v102.62c0 34.212 82.724 34.212 82.724 0v-102.62h411.684v102.62c0 34.212 82.478 34.212 82.478 0v-102.62h82.381c68.178 0 123.443-14.484 123.443-82.724v-308.849h-82.483l0.005 185.344zM892.774 664.177h-761.492c-17.014 0-30.828-13.814-30.828-30.828s13.819-30.828 30.828-30.828h761.492c17.137 0 31.012 13.819 31.012 30.828s-13.875 30.828-31.012 30.828v0zM573.757 87.66h370.729c34.14 0 34.14-82.545 0-82.545h-370.729c-34.022 0-34.017 82.545 0 82.545v0z" />
<glyph unicode="&#xe62f;" d="M873.462-3.948h-140.406l79.442 79.503h101.11v101.166l79.672 120.566 0.814-180.777c-0.005-66.555-54.026-120.458-120.632-120.458v0zM632.535 71.731c-0.589-6.062-241.070 205.082-241.070 205.082h60.319l180.751-60.14 361.554 240.927v-24.3c0-0.010-361.554-363.039-361.554-361.569v0zM914.422 538.388h-805.012v-462.833h342.38l79.498-79.503h-380.918c-66.56 0-120.458 53.903-120.458 120.463v501.376c0 66.555 53.903 120.637 120.458 120.637h80.799v101.1c0 33.367 79.498 33.367 79.498 0v-101.105h402.488v101.105c0 33.367 79.677 33.367 79.677 0v-101.105h80.63c66.611 0 120.637-54.083 120.637-120.637v-79.498l-79.677-40.253v40.253zM884.398 658.852h-744.745c-16.773 0-30.249-13.476-30.249-30.070s13.476-30.075 30.249-30.075h744.745c16.589 0 30.008 13.476 30.008 30.075 0.005 16.599-13.404 30.070-30.008 30.070v0z" />
<glyph unicode="&#xe630;" d="M811.592 929.521c0 0-140.872-24.847-260.219-256.21 0 0 97.664-238.536 260.219-170.982v-42.706l-260.219-256.21c0 0-18.017-32.21-43.392 0-25.38 32.026-79.462 206.326-216.852 213.499-43.397-17.823-130.186-24.847-260.403-256.358 57.933-53.391 130.217-263.378 347.039-170.824 155.597 39.229 686.935 366.653 607.473 768.993-47.068 71.224-43.428 103.25-173.645 170.798v0z" />
<glyph unicode="&#xe631;" d="M380.037-2.744c-213.448-91.034-284.513 115.507-341.345 168.018 127.898 227.722 213.263 234.619 255.98 252.155 135.107-7.055 188.483-178.499 213.263-209.997 24.965-31.683 42.716 0 42.716 0l256.102 252.001v42.004c-160.072-66.442-256.102 168.177-256.102 168.177 117.356 227.558 256.102 252.001 256.102 252.001 127.892-66.447 124.447-97.94 170.609-167.992 78.331-395.735-444.467-717.783-597.325-756.367v0zM451.164 509.21c-24.653-24.627-64.594-24.627-89.375 0l-223.063 223.063c-24.653 24.776-24.653 64.717 0 89.344 24.591 24.627 64.532 24.627 89.313 0l223.124-223.247c24.591-24.627 24.591-64.568 0-89.16v0zM38.692 542.925v378.696h378.696l-378.696-378.696z" />
<glyph unicode="&#xe632;" d="M377.047-12.698c-217.979-93.051-290.647 118.052-348.887 171.73 130.908 232.75 218.163 239.805 261.791 257.725 138.127-7.209 192.492-182.441 218.004-214.636 25.513-32.379 43.628 0 43.628 0l261.601 257.572v42.936c-163.415-67.917-261.601 171.889-261.601 171.889 119.982 232.591 261.601 257.572 261.601 257.572 130.913-67.917 127.258-100.106 174.572-171.704 79.877-404.485-454.287-733.65-610.708-773.084v0zM375.127 585.155c-25.708-25.708-67.569-25.708-93.271 0l-233.283 233.283c-25.672 25.861-25.861 67.564 0 93.425 25.672 25.672 67.564 25.672 93.235 0l233.313-233.283c25.861-25.892 25.861-67.599 0.005-93.425v0zM83.948 480.64l395.848 395.848v-395.848h-395.848z" />
<glyph unicode="&#xe633;" d="M777.805 439.885l88.038-88.008 64.23-128.456-201.272 167.619c-111.974-111.98-217.155-217.308-216.812-217.999 11.561-21.181-274.396 275.052-274.396 275.052l68.613 68.613 205.778-137.385 113.731 97.659-80.645 67.359v128.271l142.428-142.459 304.85 261.642v-137.544c0.010-0.031-103.567-103.608-214.543-214.364v0zM397.732 780.421c-183.757-63.693-281.037-264.090-217.339-447.468 63.693-183.537 264.243-280.852 447.969-217.37 55.639 19.302 102.2 52.193 139.986 92.426l118.994-59.464c-54.764-69.181-128.768-124.068-217.999-155.213-250.619-87.045-524.293 45.988-611.113 297.129-86.789 251.059 45.87 525.297 296.643 612.27 187.766 65.106 388.285 6.83 513.608-131.963l-103.962-78.044c-92.421 94.525-233.6 133.719-366.787 87.695v0z" />
<glyph unicode="&#xe634;" d="M512.041-43.52c-271.478 0-491.561 220.083-491.561 491.571 0 271.442 220.083 491.469 491.561 491.469 271.452 0 491.479-220.027 491.479-491.469 0-271.488-220.027-491.571-491.479-491.571v0zM512.041 847.355c-220.595 0-399.396-178.801-399.396-399.304 0-220.605 178.801-399.411 399.396-399.411 220.513 0 399.319 178.806 399.319 399.411 0 220.503-178.806 399.304-399.319 399.304v0z" />
<glyph unicode="&#xe635;" d="M1017.17 448.010c0-151.020-93.189-283.602-233.61-359.352l146.78-19.558c0 0-134.349-47.34-418.319-47.34-21.228 0-42.127 1.229-62.684 3.379 104.346 23.112 214.477 83.512 308.244 177.27 146.601 146.621 211.799 333.235 179.988 475.156 50.33-66.268 79.601-144.998 79.601-229.555v0zM86.431 218.46c-50.335 66.268-79.606 144.998-79.606 229.55 0 151.030 93.204 283.602 233.61 359.322l-146.77 19.553c0 0 134.344 47.355 418.35 47.355 21.202 0 42.061-1.239 62.582-3.384-104.305-23.142-214.451-83.548-308.178-177.28-146.601-146.606-211.768-333.235-179.988-475.116v0zM456.765 424.34l260.454 236.785h86.84c0 0-311.526-401.577-331.52-426.255-0.271-0.338-221.015 205.24-221.015 205.24l71.025 71.025 134.216-86.794z" />
<glyph unicode="&#xe636;" d="M505.18-50.36c-279.009 0-505.18 226.166-505.18 505.185 0 279.004 226.171 505.175 505.18 505.175s505.18-226.171 505.18-505.175c0-279.020-226.171-505.185-505.18-505.185v0zM505.18 881.075c-235.412 0-426.255-190.843-426.255-426.25 0-235.418 190.843-426.22 426.255-426.22 235.412 0 426.255 190.802 426.255 426.22 0 235.407-190.848 426.25-426.255 426.25v0zM568.335 738.985h-126.31l-205.21-536.827h116.5l41.354 110.577h221.015l47.416-110.577h119.485l-214.252 536.827zM426.255 407.465l79.155 208.794 78.694-208.794h-157.85z" />
<glyph unicode="&#xe637;" d="M509.804 336.855c-111.939 0-202.583 136.658-202.583 305.203 0 207.601 72.018 256.502 202.583 256.502 130.299 0 202.563-48.174 202.563-256.502 0.005-168.545-90.752-305.203-202.563-305.203v0zM998.252 4.895h-500.444v380.708c0 0 3.026 0 71.455 0 300.897-90.051 385.833-196.808 428.989-244.111 47.718-48.118 0-136.596 0-136.596v0zM21.105 4.895c0 0-47.473 88.479 0 136.602 43.986 47.299 121.129 154.061 427.602 244.111 69.939 0 72.96 0 72.96 0v-380.708l-500.562-0.005z" />
<glyph unicode="&#xe638;" d="M776.484 154.394v117.407h-293.75v58.788h528.568v-58.788l-234.819-117.407zM660.050 389.212h-177.316v58.788l234.962 117.407v-117.407h293.606v-58.788h-351.252zM424.115 506.788v-293.78h293.581v-117.407c0 0 220.247 0 233.723 0-3.845-31.544-18.294-58.788-18.294-58.788h-900.982c0 0-43.735 81.388 0 125.778 39.086 41.641 106.854 134.042 362.803 214.738-58.788 46.95-98.97 138.747-98.97 245.888 0 190.935 66.447 235.96 186.752 235.96s186.778-44.365 186.778-235.96c0-6.538-1.49-12.477-1.782-19.041l-243.61-97.388z" />
<glyph unicode="&#xe639;" d="M511.77 415.534c-127.176 0-230.164 121.006-230.164 270.382 0 149.34 102.989 270.382 230.164 270.382s230.159-121.042 230.159-270.382c0-149.376-102.984-270.382-230.159-270.382v0zM926.167-35.103c-474.824-53.693-828.58-5.745-828.58 0-86.354 332.37 138.061 360.489 138.061 360.489s19.999 0 45.962 0c143.805-676.050 184.202 0 184.202 0h92.099c42.982-673.249 184.018 0 184.018 0s0 0 45.962 0c235.909-56.458 138.276-360.489 138.276-360.489v0z" />
<glyph unicode="&#xe63a;" d="M952.914 322.12h-126.065v-126.060c0-34.688-28.165-62.848-62.843-62.848-34.872 0-63.037 28.16-63.037 62.848v126.060h-125.88c-34.867 0-63.032 28.17-63.032 62.848 0 34.867 28.165 63.032 63.032 63.032h125.88v125.88c0 34.867 28.165 63.032 63.037 63.032 34.678 0 62.843-28.165 62.843-63.032v-125.88h126.065c34.683 0 62.848-28.165 62.848-63.032 0.005-34.678-28.16-62.848-62.848-62.848v0zM637.942 511.032c-0.184-0.86-188.913 0-188.913 0v-251.945h188.913v-188.908c0 0 251.264 0 251.945 0 0 0.179 0 72.622 0 167.941 55.649-39.67 85.171-74.348 105.093-96.148 47.043-47.56 0-134.83 0-134.83h-966.026c0 0-46.889 87.27 0 134.83 41.723 44.652 114.565 143.749 388.987 230.298-63.032 50.299-106.291 148.726-106.291 263.598 0 204.718 71.27 252.989 200.412 252.989 114.196 0 182.886-37.786 197.335-188.913-40.709 0-72.131 0-71.455 0 1.044 0 0.184-188.728 0-188.913v0z" />
<glyph unicode="&#xe63b;" d="M993.628 139.894h-633.16c0 0-30.761 60.933 0 94.147 27.3 31.165 75.93 100.485 255.299 160.696-41.272 35.251-69.965 104.136-69.965 184.581 0 143.176 46.694 176.788 131.328 176.788 84.47 0 131.164-33.157 131.164-176.788 0-80.44-28.529-149.601-69.801-185.011 175.447-59.996 228.424-129.101 255.135-160.266 30.899-33.208 0-94.147 0-94.147v0zM426.184 387.507c-82.534-45.133-184.417-129.5-112.548-247.608h-283.315c0 0-30.766 60.933 0 94.147 27.295 31.165 75.93 100.485 255.268 160.696-41.267 35.251-69.939 104.136-69.939 184.581 0 143.176 46.669 176.788 131.302 176.788 84.5 0 131.169-33.157 131.169-176.788 0-80.44-28.534-149.601-69.801-185.011 6.477-2.294 11.715-4.547 17.864-6.804v0z" />
<glyph unicode="&#xe63c;" d="M491.023 478.188c-122.916 0-222.387 107.049-222.387 238.996 0 131.948 99.466 238.996 222.387 238.996 122.844 0 222.525-107.049 222.525-238.996 0-131.948-99.681-238.996-222.525-238.996v0zM535.583 434.836c-58.373 0-89.124 0-89.124 0s-578.519 43.351-177.818 260.562c311.434 0 444.908 0 444.908 0s414.3-198.226-177.966-260.562v0zM491.023 174.054c0 0-428.401 173.747-89.052 173.747 2.831-2.586 44.488 87.035 44.488 87.035h89.124l44.488-87.035c0.005 0 344.878 16.399-89.047-173.747v0zM891.653 0.338c-436.833-127.59-789.996-16.364-801.121 0-61.066 154.726 89.052 304.138 89.052 304.138 41.728-192.911 314.199-217.283 311.439-217.283 222.525 13.466 311.644 217.283 311.644 217.283 247.465-176.471 108.396-290.678 88.986-304.138v0z" />
<glyph unicode="&#xe63d;" d="M790.892 138.301c-119.788 0-216.98 96.978-216.98 216.771s97.188 216.776 216.98 216.776c119.608 0 216.776-96.983 216.776-216.776 0-119.793-97.167-216.771-216.776-216.771v0zM790.892 448c-51.359 0-92.923-41.564-92.923-92.928 0-51.359 41.564-92.923 92.923-92.923 51.185 0 92.928 41.564 92.928 92.923 0 51.364-41.743 92.928-92.928 92.928v0zM512.077 355.072c0-153.912 124.723-278.779 278.815-278.779 73.994 0 141.092 29.399 190.94 76.529 1.695-1.874 3.871-4.234 5.386-5.868 46.28-46.828 0-132.675 0-132.675h-950.426c0 0-46.285 85.852 0 132.675 41.078 43.924 112.532 141.389 382.541 226.514-62.013 49.7-104.422 146.35-104.422 259.364 0 201.405 70.118 248.899 196.987 248.899 126.961 0 197.018-46.797 197.018-248.899 0-4.536-0.968-8.438-1.152-13.010-113.193-35.635-195.686-139.878-195.686-264.75v0z" />
<glyph unicode="&#xe63e;" d="M636.672 136.438c-0.681-6.298-249.37 249.18-249.37 249.18h62.387l186.982-62.208 373.939 249.175v-62.203c0 0-373.939-375.47-373.939-373.944v0zM574.28 448.005h-124.59l-75.617-25.313c-36.91 53.519-60.355 127.805-60.355 211.246 0 202.619 70.538 250.394 198.175 250.394 127.662 0 198.2-47.078 198.2-250.394 0-88.187-26.168-166.216-66.79-220.442-33.321 16.676-69.023 34.509-69.023 34.509v0zM990.044 145.111c46.612-47.078 0-133.437 0-133.437h-353.372l236.938 236.938c62.874-42.844 95.191-80.399 116.434-103.501v0zM523.643 11.668h-489.713c0 0-46.561 86.359 0 133.437 35.359 37.74 94.152 114.729 279.424 189.87l323.313-323.308h-113.024z" />
<glyph unicode="&#xe63f;" d="M7.675 448.072c535.844 680.622 1008.65 0 1008.65 0s-472.806-680.945-1008.65 0v0zM512 649.144c-139.167 0-252.088-90.368-252.088-201.759 0-111.416 112.922-201.636 252.088-201.636 139.172 0 252.088 90.22 252.088 201.636 0 111.391-112.916 201.759-252.088 201.759v0zM512 346.947c-55.552 0-100.659 45.256-100.659 101.125 0 55.844 45.107 101.074 100.659 101.074s100.659-45.23 100.659-101.074c0-55.869-45.107-101.125-100.659-101.125v0z" />
<glyph unicode="&#xe640;" d="M836.71-46.541h-649.298c-42.737 0-77.389 34.652-77.389 77.302v834.483c0 42.65 34.652 77.297 77.389 77.297h649.298c42.742 0 77.271-34.647 77.271-77.297v-834.483c0-42.65-34.529-77.302-77.271-77.302v0zM851.676 880.538h-679.654v-865.075h679.654v865.075zM287.872 695.224h448.328c21.371 0 38.702-17.265 38.702-38.605 0-21.335-25.359-23.393-46.659-23.393h-432.778c-21.325 0-46.269 2.058-46.269 23.393-0.005 21.34 17.352 38.605 38.676 38.605v0zM287.872 478.935h432.937c21.299 0 38.569-17.357 38.569-38.697 0-21.34-9.841-23.311-31.15-23.311h-432.763c-21.325 0-46.269 1.971-46.269 23.311-0.005 21.345 17.352 38.697 38.676 38.697v0zM287.872 262.559h432.937c21.299 0 38.569-17.265 38.569-38.605s-9.841-23.393-31.15-23.393h-432.763c-21.325 0-46.269 2.053-46.269 23.393s17.352 38.605 38.676 38.605v0z" />
<glyph unicode="&#xe641;" d="M763.387-55.045h-502.953c-69.448 0-125.691 56.428-125.691 125.875v314.327c0 69.443 56.243 125.691 125.691 125.691h-57.6c-2.949 20.572-5.34 41.324-5.34 62.94 0 208.338 140.8 377.262 314.506 377.262 173.527 0 314.327-168.919 314.327-377.262 0-21.617-2.396-42.368-5.345-62.94h-57.595c69.443 0 125.875-56.243 125.875-125.691v-314.327c0-69.443-56.433-125.875-125.875-125.875v0zM449.065 196.526c0-34.816 28.124-62.94 62.935-62.94 34.632 0 62.756 28.124 62.756 62.94v62.935c0 34.637-28.124 62.756-62.756 62.756-34.816 0-62.935-28.119-62.935-62.756v-62.935zM512 856.73c-124.16 0-224.671-126.735-224.671-282.947 0-21.801 2.452-42.522 6.2-62.94h436.762c3.804 20.419 6.2 41.139 6.2 62.94 0 156.211-100.521 282.947-224.492 282.947v0z" />
<glyph unicode="&#xe642;" d="M761.81-51.195h-499.436c-68.961 0-124.995 55.849-124.995 124.815v312.090c0 68.961 56.033 124.995 124.995 124.995h370.171c61.153 100.639 63.165 222.218-2.867 293.74-78.536 85.151-222.372 67.098-321.331-40.028l-56.888 61.645c132.009 142.858 327.977 162.13 437.791 43.080 82.801-89.723 92.984-232.428 36.46-358.431h36.101c68.961 0 124.81-56.033 124.81-124.995v-312.090c0-68.972-55.849-124.82-124.81-124.82v0zM574.5 260.931c0 34.391-27.93 62.495-62.5 62.495-34.391 0-62.316-28.104-62.316-62.495v-62.5c0-34.391 27.924-62.316 62.316-62.316 34.57 0 62.5 27.924 62.5 62.316v62.5z" />
<glyph unicode="&#xe643;" d="M769.577-48.64h-515.016c-71.188 0-128.819 57.661-128.819 128.85v312.714c0 66.232 35.057 103.25 97.377 108.37-6.789 29.317-11.587 59.709-11.587 91.612-0.005 194.324 134.533 351.734 300.539 351.734 165.842 0 300.401-157.409 300.401-351.734 0-31.903-4.849-62.295-11.638-91.612 62.351-5.12 97.434-42.138 97.434-108.37v-312.714c-0.005-71.188-57.667-128.85-128.691-128.85v0zM447.647 199.68c-11.884 0-21.504-9.16-21.504-20.639 0-11.423 9.62-20.746 21.504-20.746h21.366v-41.39c0-22.902 19.267-41.385 43.059-41.385 23.629 0 42.895 18.483 42.895 41.385v136.827c25.247 14.438 42.921 39.88 42.921 70.108 0 45.752-38.42 82.775-85.816 82.775-47.427 0-85.929-37.023-85.929-82.775 0-30.228 17.597-55.67 42.87-70.108v-54.052h-21.366zM512.072 861.865c-118.907 0-215.209-120.387-215.209-268.959 0-31.58 5.12-61.542 13.097-89.672h404.060c8.023 28.129 13.092 58.092 13.092 89.672 0 148.572-96.302 268.959-215.040 268.959v0z" />
<glyph unicode="&#xe644;" d="M759.219 289.951l-247.219-346.271-247.224 346.271c-79.596 69.248-130.995 170.332-130.995 284.155 0 208.865 169.349 378.214 378.22 378.214s378.22-169.349 378.22-378.22c0-113.823-51.405-214.902-131-284.15v0zM512 826.312c-139.249 0-252.206-112.957-252.206-252.206 0-139.244 112.957-252.201 252.206-252.201 139.244 0 252.206 112.957 252.206 252.201 0 139.244-112.963 252.206-252.206 252.206v0zM512 448.092c-69.627 0-126.013 56.387-126.013 126.008 0 69.627 56.387 126.013 126.013 126.013 69.622 0 126.008-56.387 126.008-126.013 0-69.622-56.387-126.008-126.008-126.008v0z" />
<glyph unicode="&#xe645;" d="M122.88 934.4c53.77 0 97.28-43.51 97.28-97.28s-43.51-97.28-97.28-97.28-97.28 43.51-97.28 97.28 43.51 97.28 97.28 97.28v0zM25.6 610.196h194.56v-648.596h-194.56v648.596zM349.804 675.113h194.56v-713.513h-194.56v713.513zM544.364 415.636c0 0 91.96 172.964 259.476 0 0-102.723 0-454.036 0-454.036h194.56v518.953c0 0-99.246 328.253-454.036 129.644 0-164.157 0-194.56 0-194.56v0z" />
<glyph unicode="&#xe646;" d="M735.708 267.489c-1.756-5.453-16.609-268.518 0-294.405-16.609-1.756-125.67-49.582-310.513 147.169-1.94 0-14.92 0-14.92 0s-244.009-252.037-295.66-14.664c1.756 79.099-3.825 132.5 29.583 323.799-20.49 20.306-188.657 285.158-74.015 382.843 42.557 0 81.418 7.337 221.757-73.708 1.946 1.94 14.92 0 14.92 0s12.908 1.94 103.419 103.107c0 0 260.803 274.13 295.844-147.2 0-22.062-20.311-132.536 147.922-132.536 166.472 9.303 244.009-130.565-118.339-294.405v0zM210.775 547.195c-20.495 0-36.982-19.773-36.982-44.093 0-24.509 16.486-44.314 36.982-44.314 20.244 0 36.915 19.804 36.915 44.314 0 24.315-16.671 44.093-36.915 44.093v0zM262.359 414.689c-1.193-250.122 245.448-174.157 281.114-102.892-234.168-100.659-281.114 102.892-281.114 102.892v0zM513.951 620.713c0 0-7.393-1.224-14.92 0-22.062 117.806-118.339 44.283-118.339 44.283-33.219-22.221-57.728-83.487-59.172-147.2 0-122.696 65.5-90.849 88.755-73.677 35.917 24.474 33.469-1.254 44.498-29.43 86.252-141.061 156.452 67.569 162.591 103.107 29.588 185.185-103.414 102.917-103.414 102.917v0zM676.541 399.99c-24.509 0-44.314-19.738-44.314-44.124 0-24.504 19.804-44.063 44.314-44.063s44.442 19.558 44.442 44.063c-0.005 24.387-19.932 44.124-44.442 44.124v0zM547.543 489.436c-17.859 5.074-24.003 31.872-14.039 59.699s32.594 46.193 50.268 41.119c17.864-5.233 24.131-31.841 13.972-59.668-9.958-27.832-32.522-46.228-50.202-41.149v0zM416.609 519.020c-20.997 6.641-27.638 41.303-14.92 77.189 12.974 35.881 40.428 59.515 61.486 52.869 21.187-6.83 27.832-41.492 15.043-77.379-12.969-35.886-40.422-59.515-61.609-52.68v0z" />
<glyph unicode="&#xe647;" d="M81.423 942.418l-31.928-63.857 287.073-446.531-287.073-414.715 31.928-63.729h861.245l31.836 63.729-287.073 414.715 287.073 446.531-31.836 63.857h-861.245zM272.809 846.725l191.386-414.694-191.386-382.756h478.474l-191.386 382.756 191.386 414.694h-478.474z" />
<glyph unicode="&#xe648;" d="M882.237-45.481h-740.234c-68.132 0-123.489 55.301-123.489 123.489v616.684c0 68.127 55.357 123.484 123.489 123.484v-123.484h246.61v123.484h246.764v-123.484h246.856v123.484c68.065 0 123.244-55.357 123.244-123.484v-616.678c0.005-68.193-55.178-123.494-123.238-123.494v0zM882.237 139.571h-555.182c0 0 9.395 5.54 34.335 29.036 21.868 22.41 60.902 71.562 205.23 114.452-33.311 25.062-56.023 74.214-56.023 131.528 0 101.949 37.53 126.013 105.626 126.013 68.188 0 105.774-23.731 105.774-126.013 0-57.313-23.009-106.47-56.259-131.712 141.317-43.069 183.967-91.858 205.532-114.268 5.54-5.181 8.556-9.395 10.967-12.892v415.667h-740.234v-430.848c1.505 1.567 3.553 3.374 7.045 6.743 14.336 14.459 39.578 45.901 133.729 73.728-21.868 15.903-37.166 47.232-37.166 84.393 0 65.475 24.397 80.932 68.49 80.932 44.211 0 68.429-15.15 68.429-80.932 0-35.359-13.916-64.573-33.971-81.080-3.011-1.684-6.026-3.855-9.037-6.205-6.267-3.497-12.831-6.743-19.881-7.588l1.869-17.469c-4.695-13.491-5.059-30.479 5.545-53.489h-185.052v-61.558h740.229v61.563h0.005zM203.566 756.434v123.305c0 34.15 27.771 61.742 61.742 61.742 34.156 0 61.747-27.592 61.747-61.742v-123.305c0-35.994-35.84-18.493-61.747-61.742-30.776 47.764-61.742 27.587-61.742 61.742v0zM697.185 756.434v123.305c0 34.15 27.587 61.742 61.558 61.742 34.094 0 61.686-27.592 61.686-61.742v-123.305c0-34.156-37.105-15.483-61.686-61.742-37.821 50.145-61.558 27.587-61.558 61.742v0z" />
<glyph unicode="&#xe649;" d="M1020.16 631.014c0-11.786-2.109-23.726-3.84-35.666-0.691-4.869 0.558-10.419-1.551-14.73-153.651-350.085-502.861-577.203-502.861-577.203s-351.14 225.193-502.671 577.203c-2.109 4.311-0.87 9.861-1.551 14.73-1.736 11.94-3.845 23.88-3.845 35.666 0 0.338 0.184 0.527 0.184 1.055 0 0.343-0.184 0.87-0.184 1.208 0 143.252 113.818 259.308 254.126 259.308 110.346 0 213.934-72.387 253.568-172.872 39.885 100.485 143.964 172.872 254.495 172.872 140.308 0 254.131-116.055 254.131-259.308 0-0.338-0.179-0.712-0.179-1.208 0-0.374 0.179-0.712 0.179-1.055v0z" />
<glyph unicode="&#xe64a;" d="M1015.931 595.205c-0.691-4.864 0.369-10.409-1.551-14.72-153.498-349.747-502.38-576.645-502.38-576.645s-350.986 224.978-502.38 576.645c-1.92 4.306-0.865 9.851-1.551 14.72-1.608 11.93-3.656 23.859-3.656 35.63 0 0.338 0 0.527 0 1.055 0 0.343 0 0.865 0 1.208 0 143.114 113.526 259.057 253.696 259.057 110.428 0 213.914-72.32 253.512-172.703 39.665 100.388 143.831 172.703 254.254 172.703 140.18 0 253.701-115.942 253.701-259.057 0-0.343 0-0.712 0-1.208 0-0.369 0-0.712 0-1.055 0.005-11.771-2.038-23.7-3.645-35.63v0zM765.88 765.307c-96.23-5.202-224.138-118.543-253.88-190.367-45.486 49.853-146.555 187.085-253.885 190.367-222.525-50.872-81.859-221.348-63.329-253.88 91.715-162.145 317.215-380.739 317.215-380.739s243.471 233.308 317.22 380.733c10.22 20.762 160.799 230.001-63.34 253.885v0z" />
<glyph unicode="&#xe64b;" d="M63.462-55.378c-17.603 0-63.462 45.993-63.462 63.524v888.428c0 17.444 45.86 63.427 63.462 63.427s63.462-45.983 63.462-63.427v-888.428c-0.005-17.531-45.865-63.524-63.462-63.524v0zM605.711 416.594c-32.102 15.56-129.761 44.442-415.334-69.745 0 141.389 0 418.463 0 418.463s124.81 258.079 415.334 69.75c66.929-23.455 226.104 14.193 346.209 69.719 0-111.611 0-488.187 0-488.187s-214.456-154.706-346.209 0v0z" />
<glyph unicode="&#xe64c;" d="M511.037-58.88c0 0 774.62 97.572 154.112 779.843 4.731-9.846 0-233.917 0-233.917h-77c0 0-163.569 316.692 0 467.83-4.895 0-322.412-97.541-230.999-623.918 9.682-4.731-149.161-58.353-76.943 156.088-4.787 0-408.868-312.013 76.943-467.886 4.946 0.005 91.402 384.896 153.887-78.039v0z" />
<glyph unicode="&#xe64d;" d="M511.908-25.969l-505.508 568.76v126.331l252.846 252.851h505.513l252.841-252.846v-126.331l-505.692-568.765zM855.788 695.665h-687.575c-22.4 0-35.487-3.763-35.487-26.537 0-22.743 40.858-63.073 63.258-63.073h632.023c22.221 0 63.078 40.33 63.078 63.073 0.005 22.769-12.897 26.537-35.297 26.537v0z" />
<glyph unicode="&#xe64e;" d="M1016.269 692.731l-631.992-688.502-315.996 312.883 442.296 438.164 252.882-250.301h63.114v62.618l-252.6 250.266-14.065-13.819 140.365 138.952c0 0 92.728 25.477 126.3 0 73.221-15.585 179.804-123.156 189.701-187.72 5.929-21.514-0.005-62.541-0.005-62.541v0zM510.577 755.277v0zM5.094-58.322v312.852l315.996-312.852h-315.996z" />
<glyph unicode="&#xe64f;" d="M891.525-26.291h-758.866c-69.847 0-126.602 56.571-126.602 126.408v695.757c0 69.847 56.755 126.413 126.602 126.413h32.394v-126.413h172.682v126.418h95.693v-126.413h157.133v126.413h95.892v-126.413h172.488v126.413h32.579c69.852 0 126.408-56.571 126.408-126.413v-695.747c0.010-69.852-56.556-126.423-126.403-126.423v0zM922.245 699.996h-820.306v-630.584h820.306v630.584zM385.495 447.16h-95.698v95.698h95.698v-95.698zM385.495 257.444h-95.698v95.693h95.698v-95.693zM575.212 447.16h-95.698v95.698h95.698v-95.698zM575.212 257.444h-95.698v95.693h95.698v-95.693zM764.918 447.16h-95.688v95.698h95.688v-95.698zM764.918 257.444h-95.688v95.693h95.688v-95.693z" />
<glyph unicode="&#xe650;" d="M800.548 65.623v183.419c61.368 88.776 81.976 204.022 43.955 313.713-10.614 30.653-26.348 57.871-43.955 83.502v184.294c73.236-55.281 131.297-132.163 163.569-225.439 69.74-201.364-2.616-417.439-163.569-539.489v0zM512.906 288.317c-88.212 0-159.693 71.48-159.693 159.693 0 88.402 71.48 159.887 159.693 159.887 88.371 0 159.857-71.48 159.857-159.887-0.005-88.218-71.485-159.693-159.857-159.693v0zM59.945 291.062c-86.656 250.22 45.665 523.259 295.357 610.099 107.223 37.115 218.445 33.649 317.46-1.746v-140.186c-82.284 42.204-180.424 52.475-274.57 19.886-183.076-63.273-280.003-262.927-216.54-445.844 63.462-182.861 263.27-279.624 446.346-216.387 15.857 5.622 30.157 13.302 44.764 20.792v-141.030c-1.377-0.558-2.627-1.060-3.999-1.623-249.815-86.656-522.322 45.88-608.819 296.038v0z" />
<glyph unicode="&#xe651;" d="M946.56 194.248h-149.755v-149.699c-48.005 0-23.685 0-73.073 0v149.699h-149.658c0 14.392 0 23.352 0 72.893h149.658v149.873c36.588 0 25.774 0 73.073 0v-149.873h149.755zM791.245 742.712h-682.767c0 38.088 0 88.008 0 135.035h682.767c0-47.027 0-77.824 0-135.035v0zM108.477 567.414h687.887c0-33.654-1.485 8.617-1.485-26.296h-158.71v-108.739h-527.693c0 29.701 0 71.941 0 135.035v0zM108.477 256.906h341.489v-135.035h-341.489c0 26.609 0 62.449 0 135.035v0z" />
<glyph unicode="&#xe652;" d="M896.046 32.010h-70.508c3.62 10.132 6.436 20.598 6.436 31.939 0 53.069-42.947 96.010-96.010 96.010-52.879 0-96.010-42.941-96.010-96.010 0-11.341 2.811-21.811 6.436-31.939h-268.785c3.625 10.132 6.441 20.598 6.441 31.939 0 53.069-43.131 96.010-96.010 96.010-53.069 0-96.010-42.941-96.010-96.010 0-11.341 2.816-21.811 6.441-31.939h-70.513c-70.697 0-127.954 57.262-127.954 127.949v576.077c0 70.697-4.183 127.954 66.514 127.954h896.092c70.707 0 61.394-57.257 61.394-127.954v-576.077c0-70.687-57.262-127.949-127.954-127.949v0zM576.072 479.939h255.903v64.072h-255.903v-64.072zM319.98 736.036c-106.138 0-192.026-86.042-192.026-192.026 0-106.138 85.883-192.020 192.026-192.020 106.138 0 192.020 85.878 192.020 192.020 0 105.984-85.883 192.026-192.020 192.026v0zM896.046 671.964h-319.974v-63.882h319.974v63.882zM319.98 416.061c-70.697 0-127.954 57.257-127.954 127.949 0 70.697 57.257 127.954 127.954 127.954s127.954-57.257 127.954-127.954c-0.005-70.697-57.262-127.949-127.954-127.949v0z" />
<glyph unicode="&#xe653;" d="M759.219 289.951l-247.219-346.271-247.224 346.271c-79.596 69.248-130.995 170.332-130.995 284.155 0 208.865 169.349 378.214 378.22 378.214s378.22-169.349 378.22-378.22c0-113.823-51.405-214.902-131-284.15v0zM512 826.312c-139.249 0-252.206-112.957-252.206-252.206 0-139.244 112.957-252.201 252.206-252.201 139.244 0 252.206 112.957 252.206 252.201 0 139.244-112.963 252.206-252.206 252.206v0zM512 448.092c-69.627 0-126.013 56.387-126.013 126.008 0 69.627 56.387 126.013 126.013 126.013 69.622 0 126.008-56.387 126.008-126.013 0-69.622-56.387-126.008-126.008-126.008v0z" />
<glyph unicode="&#xe654;" d="M949.658 221.66c-92.616 28.877-383.421 164.654-320.343 703.411 217.073-52.060 378.522-244.316 378.522-474.045 0-82.811-21.125-160.901-58.179-229.366v0zM91.894 192.241c-47.703 75.003-75.73 163.625-75.73 258.785 0 245.284 183.9 447.836 423.316 482.519 11.018-102.118 38.016-571.622-347.587-741.304v0zM512 465.736c1.879-1.874 15.073 0 15.073 0-0.067 0 49.516-185.293 309.509-383.606-87.050-74.337-200.31-119.675-324.588-119.675-122.885 0-235.177 44.308-321.741 117.197 64.292 38.856 241.116 162.591 321.746 386.084v0z" />
<glyph unicode="&#xe655;" d="M957.599 385.434h-63.841c-2.248 0-4.122 0.998-6.359 1.224-9.728-58.885-32.415-113.188-65.715-159.759 1.505-1.341 3.502-1.905 4.992-3.364l45.266-45.138c24.94-24.909 24.94-65.331 0-90.271-25.068-24.904-65.336-24.904-90.399 0l-45.133 45.138c-1.5 1.459-1.997 3.487-3.369 5.048-46.628-33.29-100.746-56.084-159.724-65.807 0.251-2.13 1.249-4.019 1.249-6.272v-63.898c0-35.195-28.554-63.78-63.841-63.78s-63.841 28.585-63.841 63.78v63.898c0 2.248 0.998 4.142 1.249 6.272-58.854 9.718-113.096 32.517-159.729 65.807-1.372-1.567-1.869-3.589-3.369-5.048l-45.138-45.138c-24.94-24.904-65.336-24.904-90.271 0-24.94 24.94-24.94 65.362 0 90.271l45.138 45.138c1.495 1.459 3.492 2.028 4.987 3.364-33.295 46.572-55.982 100.874-65.71 159.759-2.12-0.225-4.111-1.224-6.231-1.224h-63.969c-35.164 0-63.841 28.503-63.841 63.785 0 35.313 28.677 63.898 63.841 63.898h63.969c2.12 0 4.111-1.116 6.231-1.341 9.728 58.977 32.42 113.183 65.71 159.759-1.495 1.341-3.492 1.9-4.987 3.456l-45.138 45.041c-24.94 25.001-24.94 65.464 0 90.368 24.94 24.909 65.336 24.909 90.271 0l45.138-45.138c1.495-1.556 1.997-3.584 3.369-5.14 46.628 33.413 100.874 56.079 159.729 65.807-0.251 2.243-1.249 4.147-1.249 6.39v63.78c-0.005 35.318 28.549 63.903 63.836 63.903s63.841-28.585 63.841-63.903v-63.78c0-2.243-0.998-4.147-1.249-6.39 58.982-9.723 113.096-32.389 159.724-65.807 1.377 1.562 1.869 3.589 3.369 5.14l45.133 45.138c25.068 24.909 65.336 24.909 90.399 0 24.94-24.904 24.94-65.367 0-90.368l-45.266-45.041c-1.49-1.556-3.487-2.12-4.992-3.456 33.3-46.577 55.987-100.782 65.715-159.759 2.243 0.22 4.111 1.341 6.359 1.341h63.841c35.287 0 63.841-28.585 63.841-63.898 0.005-35.282-28.549-63.785-63.836-63.785v0zM510.72 640.707c-105.861 0-191.519-85.693-191.519-191.488s85.658-191.493 191.519-191.493c105.861 0 191.519 85.699 191.519 191.493 0 105.795-85.658 191.488-191.519 191.488v0z" />
<glyph unicode="&#xe656;" d="M696.448 325.11l184.315-368.63-368.66 184.315-368.63-184.315 184.315 368.63-307.308 245.78h368.63l122.998 368.63 122.783-368.63h368.63l-307.072-245.78zM573.42 509.394l-61.312 184.315-61.501-184.315h-184.315l184.315-122.813-122.813-245.786 184.315 122.757 184.346-122.757-123.028 245.786 184.346 122.813h-184.351z" />
<glyph unicode="&#xe657;" d="M895.258-63.165l-383.35 191.677-383.35-191.677 191.672 383.35-319.396 255.626h383.355l127.718 383.355 127.908-383.355h383.35l-319.58-255.626 191.672-383.35z" />
<glyph unicode="&#xe658;" d="M703.421 1.172h-127.611l319.119 383.022v63.898l-446.735 446.735h127.616l383.012-383.017 63.898-127.611-319.299-383.027zM831.212 384.195c1.188-2.084-319.304-383.022-319.304-383.022l-510.628 510.633v383.022h383.017l446.915-446.73c0 0 0-25.938 0-63.903v0zM160.932 831.114c-52.925 0-95.754-43.013-95.754-95.754 0-52.925 42.829-95.754 95.754-95.754 52.741 0 95.754 42.829 95.754 95.754 0 52.736-43.018 95.754-95.754 95.754v0z" />
<glyph unicode="&#xe659;" d="M450.483 170.972c-0.481 0-292.48 277.028-292.48 277.028l53.929 99.855 246.246-153.784 546.335 454.016v-100.065c-0.005 0.005-553.672-577.050-554.030-577.050v0zM142.73 786.468v-677.12h677.094v307.748l123.121 123.244v-430.991c0-42.445-80.553-123.064-123.121-123.064h-677.094c-42.501 0-123.244 80.62-123.244 123.064v677.12c0 42.506 80.742 123.244 123.244 123.244h677.094c24.407 0 60.841-26.696 87.89-57.267l-87.89-65.981-677.094 0.005z" />
<glyph unicode="&#xe65a;" d="M743.91 113.096c-54.011-70.989-151.532-117.924-326.564-117.924-388.941 0-386.468 304.481-386.468 553.452 0-0.031 194.278-50.237 386.468-50.237 108.667 0 215.711 15.657 289.833 29.481 0 12.851 0 20.756 0 20.756 0-0.031 52.828 0 96.635 0 162.683 4.096 354.836-240.952-59.904-435.528v0zM804.639 497.884c2.657-86.113 8.904-180.306-8.55-263.798 257.848 128.773 17.751 259.021 8.55 263.798v0zM562.248 749.829c-61.911-149.356-193.162-201.211-193.162-201.211 0-0.031 0 81.812 0 100.618 34.76 11.028 93.542 73.938 96.492 100.588 25.708 147.876 96.671 151.004 96.671 151.004s39.209 0 96.64 0c-37.678-12.498-72.407-94.336-96.64-150.999v0z" />
<glyph unicode="&#xe65b;" d="M750.070 209.782c-131.528 0-237.983 106.691-237.983 238.218 0 131.333 106.455 238.019 237.983 238.019 131.533 0 238.090-106.685 238.090-238.019 0-131.528-106.557-238.218-238.090-238.218v0zM750.070 550.036c-56.33 0-102.036-45.839-102.036-102.036 0-56.402 45.706-102.042 102.036-102.042 56.468 0 102.042 45.64 102.042 102.042 0 56.202-45.573 102.036-102.042 102.036v0zM273.864 481.946c-131.333 0-238.024 106.691-238.024 238.024 0 131.533 106.691 238.218 238.024 238.218 131.533 0 238.218-106.685 238.218-238.218 0.005-131.333-106.685-238.024-238.218-238.024v0zM273.864 822.006c-56.202 0-102.042-45.64-102.042-102.036 0-56.202 45.839-102.036 102.042-102.036 56.402 0 102.036 45.839 102.036 102.036 0 56.397-45.635 102.036-102.036 102.036v0zM273.864 413.855c131.533 0 238.218-106.491 238.218-238.019 0-131.533-106.685-238.024-238.218-238.024-131.333 0-238.024 106.486-238.024 238.024 0 131.528 106.691 238.019 238.024 238.019v0zM273.864 73.795c56.402 0 102.036 45.64 102.036 102.042s-45.64 102.036-102.036 102.036c-56.202 0-102.042-45.635-102.042-102.036s45.844-102.042 102.042-102.042v0z" />
<glyph unicode="&#xe65c;" d="M700.058 510.684v-125.373h-376.3v125.373h-313.518l501.668 439.076 501.852-439.076h-313.702zM700.058 197.161h-376.3v125.379h376.305v-125.379h-0.005zM700.058 71.608c0-69.268-67.369-125.368-150.492-125.368h-75.264c-83.174 0-150.543 56.1-150.543 125.368v62.781h376.305v-62.781h-0.005z" />
<glyph unicode="&#xe65d;" d="M0 479.933l448.036 383.98v-191.99c0 0 565.309 58.655 575.964-639.836 0 0-64.061 485.217-575.964 255.862 0-5.248 0-191.99 0-191.99l-448.036 383.974z" />
<glyph unicode="&#xe65e;" d="M840.776 228.721c-0.998 0-132.915 0-219.172 0v438.344h219.172c0 0 72.909-40.453 72.909-72.914 0-117.146 0-292.296 0-292.296s7.352-43.622-72.909-73.134v0zM256.179-63.36c0 0-96.814 0-146.038 0v1022.72c0 0 70.917 0 146.038 0 4.997 0 292.296-292.296 292.296-292.296v-438.344l-292.296-292.081z" />
<glyph unicode="&#xe65f;" d="M796.626 635.049l-451.476-451.604-99.743 99.738 451.476 451.476-218.501 218.634h538.911v-539.116l-220.667 220.872zM199.281 751.176c-31.974 0-57.702-24.806-57.702-55.137v-563.523c0-30.531 25.723-55.137 57.702-55.137h558.193c31.98 0 57.708 24.607 57.708 55.137v281.861l134.876-134.881v-202.117c0-74.414-60.467-134.682-134.876-134.682h-673.597c-74.414 0-134.876 60.268-134.876 134.682v673.792c0 74.414 60.467 134.682 134.876 134.682h202.117l134.682-134.682-279.101 0.005z" />
<glyph unicode="&#xe660;" d="M796.027 574.029c0 0 346.276-435.901-126.019-629.54-160.993 0-314.67 0-314.67 0s-466.084 123.807-125.834 629.54c0 0-232.305 192.778-63.012 314.675 14.572 18.534 225.234 206.362 347.136-172.708 0 3.779 123.069 377.165 345.226 172.708 18.376-18.529 158.106-139.725-62.828-314.675v0zM689.428 359.951l-145.254-37.775 27.971 97.188 97.859 28.646v188.846l-156.38-217.492-158.29 217.492v-188.846l99.768-28.646 26.061-97.188-143.355 37.775v-59.412l143.355-41.375-26.061-77.24h-58.583l-41.185-48.589h314.67l-39.281 48.589h-58.578l-27.971 77.24 145.254 41.375v59.412z" />
<glyph unicode="&#xe661;" d="M337.526 70.257c-182.497 37.816-319.611 199.357-319.611 393.037 0 221.64 179.814 401.362 401.541 401.362 221.819 0 401.541-179.722 401.541-401.362 0-70.472-18.304-136.602-50.207-194.196 32.507-17.275 53.734-44.534 53.734-44.534 54.395 41.011 181.56-24.612 181.56-24.612-274.801-202.941-507.474-189.819-668.559-129.695v0zM419.456 814.474c-194.043 0-351.334-157.256-351.334-351.181 0-56.602 13.722-109.911 37.453-157.225 32.507 21.381 137.866-15.165 137.866-7.752 72.673 98.365 175.498 24.607 181.56 24.607 151.921 177.915 252.908-40.95 254.413-49.121-0.092 0-0.092-0.092-0.179-0.092 0.271-0.241 0.271-0.148 0.179 0.092 14.141 6.666 27.95 9.103 41.011 9.016 31.749 52.803 50.36 114.381 50.36 180.48 0.005 193.92-157.317 351.176-351.329 351.176v0z" />
<glyph unicode="&#xe662;" d="M897.372 121.047l103.588-104.489c0 0-104.94 18.985-178.534 60.109-35.282-13.819-74.040-21.514-114.826-21.514-162.099 0-293.443 121.119-293.443 270.495 0 149.35 131.343 270.469 293.443 270.469 162.017 0 293.361-121.119 293.361-270.469 0-82.248-40.786-155.054-103.588-204.6v0zM615.916 454.431c-23.706 0-42.803-17.249-42.803-38.595 0-21.32 19.098-38.733 42.803-38.733 23.593 0 42.696 17.413 42.696 38.733 0 21.35-19.103 38.595-42.696 38.595v0zM799.171 454.431c-23.485 0-42.696-17.249-42.696-38.595 0-21.32 19.21-38.733 42.696-38.733 23.706 0 42.803 17.413 42.803 38.733 0 21.35-19.098 38.595-42.803 38.595v0zM327.695 324.69c0-20.731 2.529-41.119 6.799-60.728-31.237 2.698-61.517 8.315-89.938 18.089-38.876-37.524-115.446-77.527-160.502-80.558 8.315 23.429 48.988 90.563 71.066 126.515-79.831 56.622-132.081 143.534-132.081 242.345 0 170.726 153.144 309.094 342.18 309.094 166.62 0 305.188-107.776 335.749-250.076-12.36 1.265-24.269 3.456-37.079 3.456-185.58 0-336.195-137.917-336.195-308.137v0zM249.103 712.033c-23.537 0-42.808-17.244-42.808-38.595 0-21.32 19.272-38.733 42.808-38.733 23.706 0 42.865 17.413 42.865 38.733-0.005 21.35-19.159 38.595-42.865 38.595v0zM493.532 712.033c-23.537 0-42.639-17.244-42.639-38.595 0-21.32 19.098-38.733 42.639-38.733 23.706 0 42.865 17.413 42.865 38.733 0 21.35-19.159 38.595-42.865 38.595v0z" />
<glyph unicode="&#xe663;" d="M905.861 87.357l-159.442-14.572-114.089-75.96v65.618l-60.191-5.581c1.797 0 0 45.942 0 60.221v541.425c0 14.28 0 60.216 0 60.216h360.98c15.043 0 60.16-4.639 60.16 0v-601.641c0-14.28-72.381-29.727-87.419-29.727v0zM873.078 598.292h-180.475v-420.992l-12.805-60.216h39.711l93.297 60.216h60.273v420.992zM522.911 359.245h-191.283v-61.686c0 0 247.127-88.95 136.648-262.021-45.588 50.698-162.908 193.106-164.024 194.222-79.78-240.517-205.092-232.934-205.092-232.934s-18.212 0-68.444 0c234.819 162.79 180.475 360.95 180.475 360.95s-113.208 1.469-166.671 1.469c13.629 57.098 46.413 118.789 46.413 118.789h180.48v180.475c0 0-21.504 0-60.216 0-23.793-93.88-167.849-120.259-180.475-120.259 58.22 79.718 61.512 129.423 95.816 222.305 34.135 137.82 144.876 138.644 144.876 138.644 67.267-92.058-60.216-180.475-60.216-180.475s77.957 28.257 240.691 60.042c36.424-11.807 57.457-121.902 57.457-121.902l-117.673 1.644-60.042-180.475c0 0 74.67 0 120.259 0 46.761-8.699 71.025-118.789 71.025-118.789v0z" />
<glyph unicode="&#xe664;" d="M512 27.023l189.548 662.216-189.548 173.926-189.353-173.926 189.353-662.216-505.17 662.216 114.811 179.738h780.749l114.78-179.738-505.17-662.216z" />
<glyph unicode="&#xe665;" d="M886.927-51.84l-874.829 874.829v124.851h124.974l874.824-874.824v-124.856h-124.969zM137.073-51.84h-124.974v124.856l874.829 874.824h124.974v-124.851l-874.829-874.829z" horiz-adv-x="1088" />
<glyph unicode="&#xe666;" d="M361.795 328.274l660.767 540.529v-120.059c0 0-685.164-699.771-660.767-720.707 24.576-21.115-360.356 360.356-360.356 360.356l60.119 120.054 300.237-180.173z" />
<glyph unicode="&#xe667;" d="M120.914 24.515c0 0-53.98 82.647 90.296 88.556-24.125 17.659-100.183 81.28-90.296 147.753-17.536-7.46-41.293-19.773-74.998-73.999-15.109 0-135.322 118.282 105.037 325.115-6.216 11.197-23.757 49.188 15.114 103.357 0 0 9.078 310.38 345.825 310.38 0-44.467 0-901.161 0-901.161s-213.494-121.262-390.979 0v0zM977.859 186.824c-33.894 54.6-57.708 66.54-75.249 73.999 10.076-66.852-65.981-115.103-90.112-133.012 144.65-5.908 90.112-103.296 90.112-103.296-177.853-121.948-390.723 0-390.723 0s0 856.509 0 901.161c337.618 0 345.58-310.38 345.58-310.38 39.117-54.349 21.391-92.16 15.109-103.357 241.224-208.020 120.392-325.115 105.283-325.115v0z" />
<glyph unicode="&#xe668;" d="M171.32 137.247c82.524 159.56 335.35 748.349 840.735 748.349-110.725-101.755-109.629-170.639-93.757-226.396-94.372 21.821-162.734 2.898-162.734 2.898s23.685-75.51 53.35-93.425c-22.344-20.081-50.785-26.066-92.416-25.39-35.159-2.719-68.244 22.676-68.244 22.676s80.451-54.354 98.033-117.96c-57.743-2.227-97.664-29.998-140.636-15.171-33.725-18.739-76.698 73.467-109.23-14.986-106.394-73.006-192.456-167.429-321.987-281.149 1.347-0.118 2.504-0.855 4.029-0.855h541.947c23.076 0 41.631 17.582 41.631 39.066v273.613h124.887v-350.525c0-48.343-41.262-87.588-92.17-87.588h-690.765c-50.785 0-92.047 39.245-92.047 87.588v699.981c0 48.404 41.262 87.624 92.047 87.624h345.549v-125.466h-271.084c-22.948 0-41.748-17.551-41.748-39.035v-546.191c0-19.103 15.196-34.304 34.611-37.658v0z" />
<glyph unicode="&#xe669;" d="M742.979-27.653h-594.57c-41.021 0-118.912 77.921-118.912 118.917v713.477c0 41.021 77.891 118.917 118.912 118.917h594.57c17.244 0 40.699-13.967 62.418-32.891l-147.364-86.021h-509.624v-713.482h594.57v178.371l118.917 118.917v-297.283c0-41.006-77.926-118.922-118.917-118.922v0zM980.808 626.371l-416.2-416.2c0 0-178.166 178.488-178.371 178.376l327.183 327.214 163.738-163.712 29.727 29.727-163.732 163.712 59.279 59.254c29.036 29.030 45.696 43.899 74.732 14.863l81.812-81.751c29.030-29.036 50.862-82.452 21.832-111.483v0zM691.246 737.853l29.844 29.727 22.067-22.093-29.732-29.727-22.18 22.093zM289.705 150.717l37.074 178.371 178.371-178.371h-215.444z" />
<glyph unicode="&#xe66a;" d="M975.396 110.986c0-93.143 8.883-168.509-84.25-168.509h-758.287c-93.138 0-84.255 75.366-84.255 168.509v337.014c0 93.143-8.888 168.509 84.255 168.509h758.292c93.133 0 84.25-75.366 84.25-168.509v-337.014h-0.005zM217.114 448h-84.26v-84.255h84.26v84.255zM217.114 279.491h-84.26v-84.25h84.26v84.25zM217.114 110.986h-84.26v-84.26h84.26v84.26zM385.618 448h-84.255v-84.255h84.26v84.255h-0.005zM385.618 279.491h-84.255v-84.25h84.26v84.25h-0.005zM385.618 110.986h-84.255v-84.26h84.26v84.26h-0.005zM554.132 448h-84.26v-84.255h84.26v84.255zM554.132 279.491h-84.26v-84.25h84.26v84.25zM554.132 110.986h-84.26v-84.26h84.26v84.26zM722.637 448h-84.255v-84.255h84.255v84.255zM722.637 279.491h-84.255v-84.25h84.255v84.25zM722.637 110.986h-84.255v-84.26h84.255v84.26zM891.146 448h-84.255v-84.255h84.255v84.255zM891.146 279.491h-84.255v-84.25h84.255v84.25zM891.146 110.986h-84.255v-84.26h84.255v84.26zM891.146 700.764h-758.292c-23.281 0-84.255 18.842-84.255 42.127v84.255c0 23.281 60.969 42.127 84.255 42.127h84.26v84.25h84.25v-84.255h421.274v84.255h84.255v-84.255h84.255c23.286 0 84.25-18.842 84.25-42.127v-84.26c0-23.276-60.964-42.117-84.25-42.117v0z" />
<glyph unicode="&#xe66b;" d="M718.3 668.134c-62.899 46.817-144.957 76.155-235.93 76.155-196.347 0-355.543-132.634-355.543-296.289 0-101.852 61.629-191.718 155.551-244.961l-52.26-55.67c-133.125 63.022-221.809 173.896-221.809 300.631 0 196.352 212.234 355.543 474.061 355.543 110.188 0 211.456-28.472 291.948-75.75l-56.018-59.658zM620.795 374.451l23.373 24.878c-6.129-9.027-14.234-17.3-23.373-24.878v0zM482.371 566.513c43.75 0 83.246-10.88 114.176-28.355l-186.076-198.374c-62.326 18.345-105.871 59.837-105.871 108.216 0 65.505 79.601 118.513 177.772 118.513v0zM417.183 157.266c21.238-3.297 42.88-5.555 65.188-5.555 196.352 0 355.548 132.634 355.548 296.289 0 43.924-12.268 85.417-32.87 122.972l70.717 75.464c50.806-56.714 80.666-124.938 80.666-198.431 0-196.352-212.26-355.543-474.061-355.543-39.9 0-78.525 4.050-115.564 11.049l50.376 53.755zM897.172 862.802l-770.345-829.609h118.513l770.35 829.609h-118.518z" />
<glyph unicode="&#xe66c;" d="M512 74.051c-275.379 0-498.601 167.439-498.601 373.949s223.222 373.949 498.601 373.949c275.348 0 498.601-167.439 498.601-373.949 0-206.51-223.252-373.949-498.601-373.949v0zM512 759.624c-206.51 0-373.949-139.5-373.949-311.624s167.439-311.624 373.949-311.624c206.51 0 373.949 139.5 373.949 311.624s-167.439 311.624-373.949 311.624v0zM512 323.348c-103.255 0-186.977 55.752-186.977 124.652 0 68.869 83.722 124.652 186.977 124.652 103.224 0 186.977-55.782 186.977-124.652 0-68.9-83.753-124.652-186.977-124.652v0z" />
<glyph unicode="&#xe66d;" d="M1010.007 257.669v-64.415l-62.531-12.554c-14.29-36.634-44.078-65.27-81.172-78.203l-11.827-59.172h-63.498l-11.735 58.732c-10.578 3.604-20.372 8.786-29.578 14.776l12.646-12.616-53.893-35.937-44.902 44.928 35.901 53.868 10.424-10.394c-6.41 9.882-11.489 20.669-15.201 32.072l-57.969 11.581v63.534l59.279 11.827c4.106 11.459 9.851 22.129 16.722 31.933l-15.171-15.155-35.932 53.914 44.928 44.902 53.893-35.917-14.167-14.172c9.938 6.932 20.7 12.682 32.374 16.707l11.704 58.962h64.051l11.735-58.988c10.363-3.599 19.968-8.74 29.030-14.633l-11.827 11.884 54.354 36.419 45.297-45.527-36.234-54.661-11.556 11.658c6.6-10.307 11.858-21.535 15.596-33.439l59.259-11.914zM822.318 300.943c-38.912 0-70.436-31.724-70.436-70.851 0-39.122 31.524-70.845 70.436-70.845 38.938 0 70.497 31.724 70.497 70.845 0 39.127-31.555 70.851-70.497 70.851v0zM589.885 230.093c0-5.253 0.425-10.394 0.758-15.56h-46.418l-203.377-217.907v217.907h-186.778c-76.426 0-140.078 63.534-140.078 140.078v404.68c0 76.554 63.657 140.078 140.078 140.078h607.022c76.426 0 140.078-63.529 140.078-140.078v-309.289c-24.381 8.643-50.493 13.563-77.819 13.563-128.952 0-233.467-104.515-233.467-233.472v0zM208.415 635.034c-47.334 0-85.699-38.344-85.699-85.606 0-47.283 38.364-85.606 85.699-85.606 47.314 0 85.693 38.318 85.693 85.606 0 47.263-38.38 85.606-85.693 85.606v0zM457.441 635.034c-47.329 0-85.693-38.344-85.693-85.606 0-47.283 38.364-85.606 85.693-85.606 47.319 0 85.688 38.318 85.688 85.606 0 47.263-38.369 85.606-85.688 85.606v0zM706.468 635.034c-47.334 0-85.699-38.344-85.699-85.606 0-47.283 38.364-85.606 85.699-85.606 47.329 0 85.693 38.318 85.693 85.606 0.005 47.263-38.359 85.606-85.693 85.606v0zM984.863 109.594l-45.266-45.512-54.354 36.419 63.386 63.744 36.234-54.651z" />
<glyph unicode="&#xe66e;" d="M909.42 741.862h-794.834c0 28.856 0 82.964 0 114.371h794.834c0-49.408 0-70.738 0-114.371v0zM909.42 380.57h-794.834c0 20.495 0 77.481 0 114.371h794.834c0-41.82 0-39.685 0-114.371v0zM909.42 19.292h-794.834c0 52.388 0 69.668 0 114.365h794.834c0-53.658 0-46.945 0-114.365v0z" />
<glyph unicode="&#xe66f;" d="M952.596 164.762h-125.885v-125.88c0-34.729-28.216-62.945-62.94-62.945-34.729 0-62.945 28.216-62.945 62.945v125.88h-125.885c-34.724 0-62.94 28.216-62.94 62.945 0 34.724 28.216 62.94 62.94 62.94h125.885v125.885c0 34.729 28.216 62.94 62.945 62.94 34.724 0 62.94-28.211 62.94-62.94v-125.885h125.885c34.724 0 62.94-28.216 62.94-62.94 0-34.734-28.216-62.945-62.94-62.945v0zM669.353 542.413c-52.127 0-94.413-42.286-94.413-94.413 0-46.776 34.729-83.963 79.416-91.341l-0.737-3.072h-182.523c-13.65 28.764-22.036 60.539-22.036 94.408 0 121.708 98.591 220.293 220.298 220.293 87.716 0 162.826-51.722 198.292-125.88h-166.825c0 0.005-20.9 0.005-31.473 0.005zM228.762 479.468c-121.702 0-220.293 98.627-220.293 220.298-0.005 121.702 98.591 220.298 220.293 220.298 121.677 0 220.298-98.596 220.298-220.298 0-121.672-98.627-220.298-220.298-220.298v0zM228.762 794.179c-52.122 0-94.408-42.291-94.408-94.413s42.286-94.413 94.408-94.413c52.127 0 94.413 42.291 94.413 94.413s-42.291 94.413-94.413 94.413v0zM228.762 416.532c121.677 0 220.298-98.596 220.298-220.298s-98.621-220.293-220.298-220.293c-121.702 0-220.293 98.596-220.293 220.293-0.005 121.702 98.591 220.298 220.293 220.298v0zM228.762 101.821c52.127 0 94.413 42.291 94.413 94.408 0 52.127-42.291 94.413-94.413 94.413-52.122 0-94.408-42.291-94.408-94.413-0.005-52.122 42.286-94.408 94.408-94.408v0z" />
<glyph unicode="&#xe670;" d="M917.801 104.622h-93.635v-93.65l-107.013 93.65h-158.326l65.024 78.039h169.083c76.641 0 140.488 79.319 140.488 156.078v124.882h15.606c38.318 0 62.433-39.68 62.433-78.060v-187.295c0.005-38.38-55.342-93.645-93.66-93.645v0zM761.728 213.873h-217.472l-203.96-218.516v218.516h-187.284c-76.641 0-140.477 63.683-140.477 140.477v405.806c0 76.78 63.836 140.483 140.477 140.483h608.722c76.611 0 140.477-63.703 140.477-140.483v-405.806c-0.005-76.79-63.872-140.477-140.483-140.477v0zM207.483 635.54c-47.447 0-85.903-38.431-85.903-85.832 0-47.421 38.456-85.862 85.903-85.862 47.468 0 85.939 38.441 85.939 85.862 0 47.401-38.472 85.832-85.939 85.832v0zM457.236 635.54c-47.483 0-85.939-38.431-85.939-85.832 0-47.421 38.456-85.862 85.939-85.862 47.432 0 85.934 38.441 85.934 85.862 0 47.401-38.502 85.832-85.934 85.832v0zM706.964 635.54c-47.468 0-85.934-38.431-85.934-85.832 0-47.421 38.472-85.862 85.934-85.862 47.452 0 85.924 38.441 85.924 85.862 0 47.401-38.472 85.832-85.924 85.832v0z" />
<glyph unicode="&#xe671;" d="M875.904 123.699c5.868-37.699 77.363-108.308 77.363-108.308-115.507-11.136-177.29 54.625-175.826 54.625-222.244-58.132-343.813 42.701-365.732 53.683 644.941 19.369 511.923 522.516 511.923 522.516 229.519-266.368-47.729-522.516-47.729-522.516v0zM439.153 201.17c-29.43 0-58.235 2.493-86.083 7.24-119.188-99.953-296.156-106.557-296.156-106.557s101.427 108.114 133.944 165.079c-109.24 63.57-181.443 166.518-181.443 279.245 0 185.421 190.551 335.708 425.615 335.708 235.054 0 425.646-150.287 425.646-335.708 0-185.405-186.465-345.006-421.524-345.006v0zM243.732 598.922c-35.231 0-63.754-28.073-63.754-62.735 0-34.668 28.524-62.771 63.754-62.771 35.2 0 63.744 28.104 63.744 62.771 0 34.662-28.544 62.735-63.744 62.735v0zM427.679 598.922c-35.2 0-63.749-28.073-63.749-62.735 0-34.668 28.549-62.771 63.749-62.771s63.718 28.104 63.718 62.771c0 34.662-28.518 62.735-63.718 62.735v0zM612.096 598.922c-35.21 0-63.754-28.073-63.754-62.735 0-34.668 28.544-62.771 63.754-62.771 35.22 0 63.78 28.104 63.78 62.771 0 34.662-28.559 62.735-63.78 62.735v0z" />
<glyph unicode="&#xe672;" d="M360.197 953.994v-101.202h-101.207v-101.207h-101.202v-101.105h-101.304v-101.304h911.032v202.409h-506.117v202.409h-101.202zM663.803-57.994v101.202h101.105v101.202h101.304v101.207h101.304v101.202h-911.032v-202.409h506.015v-202.404h101.304z" />
</font>
</defs>
</svg>
